<?xml version="1.0" standalone="no"?>
<!DOCTYPE svg PUBLIC "-//W3C//DTD SVG 1.1//EN" "http://www.w3.org/Graphics/SVG/1.1/DTD/svg11.dtd" >
<svg xmlns="http://www.w3.org/2000/svg" xmlns:xlink="http://www.w3.org/1999/xlink" version="1.1">
<metadata></metadata>
<defs>
<font id="tracksnormal" horiz-adv-x="485" >
<font-face units-per-em="2048" ascent="1638" descent="-410" />
<missing-glyph horiz-adv-x="438" />
<glyph unicode="&#xfb01;" horiz-adv-x="1146" d="M20 780v94q0 43 28 71t69 28h76v119q0 207 119.5 297t312.5 90q96 0 190 -33q6 -102 -37 -178q-86 25 -157 24q-111 0 -158 -43t-47 -135v-141h598v-973h-223v780h-375v-637q0 -63 -40 -103t-104 -40h-79v780h-173z" />
<glyph unicode="&#xfb02;" horiz-adv-x="1214" d="M20 780v94q0 43 28 71t69 28h76v119q0 205 116.5 296t294.5 91q127 0 230 -37q27 37 100 37h80v-1479h-223v1266q-94 27 -191 26q-184 0 -184 -178v-141h231v-99q0 -41 -28.5 -67.5t-69.5 -26.5h-133v-637q0 -63 -40 -103t-104 -40h-79v780h-173z" />
<glyph horiz-adv-x="0" />
<glyph unicode="&#xd;" horiz-adv-x="681" />
<glyph unicode=" "  horiz-adv-x="438" />
<glyph unicode="&#x09;" horiz-adv-x="438" />
<glyph unicode="&#xa0;" horiz-adv-x="438" />
<glyph unicode="!" d="M109 1022l2 197q0 63 41 103t102 40h119v-342l-39 -576h-184zM117 0v137q0 49 36.5 82t90.5 33h125v-252h-252z" />
<glyph unicode="&#x22;" horiz-adv-x="745" d="M113 836v411q0 47 36.5 81t90.5 34h84v-410q0 -49 -37 -82.5t-90 -33.5h-84zM422 836v411q0 47 37 81t88 34h86v-410q0 -49 -37 -82.5t-90 -33.5h-84z" />
<glyph unicode="#" horiz-adv-x="1349" d="M90 340v100q0 41 28.5 68t69.5 27h107l57 292h-184v99q0 41 28.5 67.5t69.5 26.5h121l35 184q12 66 66.5 112t119.5 46h62l-64 -342h285l35 182q12 66 66.5 113t119.5 47h62l-64 -342h168v-98q0 -41 -28.5 -68t-69.5 -27h-105l-57 -292h182v-101q0 -41 -28.5 -67.5 t-69.5 -26.5h-121l-74 -340h-215l70 340h-285l-74 -340h-215l70 340h-168zM514 535h285l57 292h-285z" />
<glyph unicode="$" horiz-adv-x="1091" d="M47 164l10 18q66 111 174 111q25 0 45 -8q158 -84 297 -84q102 0 160 54t58 126q0 63 -36 92t-114 57q-41 16 -123 39t-117 35q-328 119 -327 387q0 154 97 251t265 120v45q0 51 38 86t99 35h68v-168q186 -27 395 -168q-14 -20 -35.5 -44t-67.5 -49.5t-93 -25.5 q-33 0 -60 17q-119 66 -245 65q-98 0 -151.5 -47t-53.5 -117q0 -78 55 -121t178 -75q207 -61 283 -103q197 -106 196 -313q0 -152 -111.5 -259.5t-289.5 -127.5v-201h-205v207q-205 35 -389 166z" />
<glyph unicode="%" horiz-adv-x="1773" d="M72 989v119q0 162 77.5 257t247.5 95t248 -95t78 -257v-119q0 -141 -83 -228t-247 -87t-242.5 87t-78.5 228zM240 1042q0 -113 38.5 -160.5t116.5 -47.5q80 0 120 48t40 160v48q0 113 -40 160.5t-120 47.5q-78 0 -116.5 -47t-38.5 -161v-48zM334 0l823 1335 q37 63 98.5 103.5t122.5 40.5h80l-911 -1479h-213zM1051 293v119q0 162 77.5 257t247.5 95t248 -95.5t78 -256.5v-119q0 -141 -83 -228.5t-247 -87.5t-242.5 87.5t-78.5 228.5zM1219 346q0 -113 38.5 -161t116.5 -48q80 0 120 48t40 161v47q0 113 -40 161t-120 48 q-78 0 -116.5 -47t-38.5 -162v-47z" />
<glyph unicode="&#x26;" horiz-adv-x="1298" d="M57 408q0 109 59.5 194.5t155.5 110.5v4q-184 78 -184 305q0 154 118 260.5t318 106.5q186 0 389 -72q-12 -86 -51 -129t-76 -43q-6 0 -83.5 19.5t-178.5 19.5q-197 0 -196 -170q0 -211 252 -211h163v170h80q63 0 103.5 -40t40.5 -104v-26h215v-96q0 -43 -29 -70t-72 -27 h-114v-280q0 -156 129 -156q57 0 104 14q43 -76 37 -188q-57 -23 -150 -23q-125 0 -213 76q-121 -76 -303 -76q-258 0 -386 116t-128 315zM297 408q0 -102 64.5 -168t201.5 -66q92 0 136 35t44 121v280h-219q-111 0 -169 -53t-58 -149z" />
<glyph unicode="'" horiz-adv-x="436" d="M113 836v411q0 47 36.5 81t90.5 34h84v-410q0 -49 -37 -82.5t-90 -33.5h-84z" />
<glyph unicode="(" horiz-adv-x="614" d="M72 444.5q0 521.5 338 931.5l79 -45q33 -23 33 -61q0 -20 -10 -37q-229 -350 -229 -789q0 -440 229 -784q8 -16 8 -37q0 -45 -37 -67l-73 -41q-338 408 -338 929.5z" />
<glyph unicode=")" horiz-adv-x="614" d="M72 1270q0 39 32 61l80 45q338 -410 338 -932t-338 -929l-73 41q-37 23 -37 67q0 20 8 37q229 344 229 784q0 438 -229 789q-10 16 -10 37z" />
<glyph unicode="*" horiz-adv-x="942" d="M72 1010l65 200l29 -10q27 -8 52.5 -19.5t57 -29.5t46 -26.5t53.5 -34t45 -29.5q-55 197 -55 282v33h213v-33q-1 -100 -56 -282q10 6 48 30.5t53.5 34t45 26.5t54.5 28.5t51 19.5l31 10l65 -200l-32 -11q-86 -27 -285 -34q164 -117 213 -195l18 -29l-170 -120l-20 24 q-16 20 -35.5 57t-31 63t-32 79t-24.5 61q-80 -203 -123 -260l-18 -24l-172 120l20 29q68 92 211 195q-207 8 -287 34z" />
<glyph unicode="+" horiz-adv-x="978" d="M57 475v92q0 45 28 73t69 28h239v331h92q45 0 73 -27.5t28 -66.5v-237h334v-99q0 -41 -29 -67.5t-70 -26.5h-235v-338h-99q-41 0 -67.5 29t-26.5 72v237h-336z" />
<glyph unicode="," d="M117 0v137q0 49 36.5 82t90.5 33h125v-252q0 -88 -43 -160.5t-99 -111.5h-106q92 166 92 272h-96z" />
<glyph unicode="-" horiz-adv-x="724" d="M29 483v92q0 45 27.5 73t68.5 28h571v-98q0 -41 -28.5 -68t-69.5 -27h-569z" />
<glyph unicode="." d="M117 0v137q0 49 36.5 82t90.5 33h125v-252h-252z" />
<glyph unicode="/" horiz-adv-x="1067" d="M-29 0l824 1335q37 63 98 103.5t123 40.5h80l-912 -1479h-213z" />
<glyph unicode="0" horiz-adv-x="1218" d="M57 512v281q0 274 132.5 435t418.5 161q289 0 420 -161t131 -435v-281q0 -238 -139 -386.5t-418 -148.5q-276 0 -410.5 147.5t-134.5 387.5zM307 596q0 -219 73.5 -310t223.5 -91q152 0 229.5 92t77.5 309v174q0 215 -77.5 306t-229 91t-224.5 -90t-73 -307v-174z" />
<glyph unicode="1" horiz-adv-x="739" d="M39 1251q403 111 475 111h80v-1362h-244v1106l-88 -23q-63 -14 -126.5 34t-90.5 118z" />
<glyph unicode="2" horiz-adv-x="1132" d="M68 0v88q0 180 92 320.5t258 224.5q41 20 112.5 55t96.5 47q195 100 194 232q0 98 -60.5 153.5t-182.5 55.5q-178 0 -238 -152q-14 -43 -62.5 -69.5t-119.5 -26.5q-43 0 -80 6q23 205 155 330t342 125q219 0 351.5 -112t132.5 -310q0 -152 -84 -253.5t-258 -178.5 l-72 -31q-154 -68 -217 -136.5t-82 -150.5h713v-43q0 -74 -58.5 -124t-150.5 -50h-782z" />
<glyph unicode="3" horiz-adv-x="997" d="M68 55q10 72 41.5 124t52.5 52q113 -41 254 -41q264 0 264 218q0 178 -160 190q-162 10 -204 39t-42 137v29h125q252 0 252 211q0 160 -198 160q-100 0 -172 -19.5t-78 -19.5q-37 0 -76 47t-53 135q205 72 389 72q201 0 319.5 -106.5t118.5 -260.5q0 -227 -184 -305v-4 q94 -25 153.5 -111t59.5 -194q0 -199 -128 -315t-386 -116q-172 0 -348 78z" />
<glyph unicode="4" horiz-adv-x="1185" d="M39 371v47q0 119 80 227l473 651q45 66 131 66h195v-791h229v-36q0 -72 -57.5 -118t-149.5 -46h-22v-371h-224v371h-655zM297 571h397v551z" />
<glyph unicode="5" horiz-adv-x="1003" d="M49 47q12 139 94 182q106 -39 234 -39q285 0 285 228q0 121 -80 172t-248 51q-78 0 -217 -20l92 651q4 37 33.5 63.5t72.5 26.5h621v-45q0 -72 -58.5 -122t-150.5 -50h-289l-41 -293h47q207 0 334 -104.5t127 -323.5q0 -197 -140 -322t-388 -125q-164 0 -328 70z" />
<glyph unicode="6" horiz-adv-x="1064" d="M66 444q0 231 89 432t261 336q205 162 526 162h29v-22q0 -180 -86 -193q-340 -45 -496 -344q53 27 137 27q207 0 347.5 -119t140.5 -332q0 -184 -121 -299t-338 -115q-240 0 -364.5 128t-124.5 339zM307 446q0 -256 248 -256q102 0 162.5 57.5t60.5 155.5 q0 104 -74.5 166t-187.5 62q-82 0 -186 -45q-23 -88 -23 -140z" />
<glyph unicode="7" horiz-adv-x="1011" d="M39 1317v45h934v-23q0 -76 -66 -211l-540 -1128h-271l553 1145h-401q-92 0 -150.5 50t-58.5 122z" />
<glyph unicode="8" horiz-adv-x="1198" d="M57 393q0 193 222 301q-76 43 -127.5 123t-51.5 191q0 168 137.5 274.5t362.5 106.5q223 0 360.5 -106.5t137.5 -274.5q0 -111 -51.5 -191t-126.5 -123q221 -109 221 -301q0 -182 -136.5 -299t-404.5 -117t-405.5 116t-137.5 300zM313 391q0 -92 73 -146.5t214 -54.5 t213 54.5t72 146.5q0 88 -73 144.5t-214 56.5t-213 -56.5t-72 -144.5zM352 993q0 -190 248 -190q246 0 246 190q0 184 -248 185q-246 0 -246 -185z" />
<glyph unicode="9" horiz-adv-x="1064" d="M66 975q0 184 120.5 299t337.5 115q238 0 364 -129.5t126 -337.5q0 -231 -89 -432t-261 -336q-205 -162 -527 -162h-28v22q0 180 86 193q186 25 303.5 112t191.5 232q-53 -27 -137 -27q-207 0 -347 119t-140 332zM301 963q0 -104 75 -166t187 -62q93 0 187 45 q23 88 22 140q0 256 -248 256q-102 0 -162.5 -57.5t-60.5 -155.5z" />
<glyph unicode=":" d="M117 0v137q0 49 36.5 82t90.5 33h125v-252h-252zM117 506v137q0 49 36.5 82t90.5 33h125v-252h-252z" />
<glyph unicode=";" d="M117 0v137q0 49 36.5 82t90.5 33h125v-252q0 -88 -43 -160.5t-99 -111.5h-106q92 166 92 272h-96zM117 506v137q0 49 36.5 82t90.5 33h125v-252h-252z" />
<glyph unicode="&#x3c;" horiz-adv-x="966" d="M72 545q0 100 86 151l637 369l100 -172l-596 -344l596 -342l-98 -172l-639 366q-86 47 -86 144z" />
<glyph unicode="=" horiz-adv-x="978" d="M57 291v94q0 45 28 72.5t69 27.5h766v-98q0 -43 -28 -69.5t-71 -26.5h-764zM57 641v92q0 45 28 73t69 28h766v-99q0 -41 -29 -67.5t-70 -26.5h-764z" />
<glyph unicode="&#x3e;" horiz-adv-x="966" d="M72 207l596 342l-596 344l100 172l637 -369q86 -51 86 -151q0 -96 -86 -144l-639 -366z" />
<glyph unicode="?" horiz-adv-x="872" d="M18 1243q143 145 369 146q205 0 315.5 -96.5t110.5 -262.5q0 -111 -44 -187.5t-105.5 -117.5t-124 -76t-106.5 -85t-44 -120h-178q0 104 27.5 179t68.5 110t89 66.5t89 54.5t69 67t28 109q0 70 -47.5 114t-128.5 44q-59 0 -128 -18.5t-102 -51.5q-59 8 -106.5 46 t-51.5 79zM174 0v137q0 49 37 82t90 33h125v-252h-252z" />
<glyph unicode="@" horiz-adv-x="1773" d="M72 506q0 371 227 607.5t602 236.5q346 0 573.5 -199t227.5 -547q0 -96 -21.5 -189t-66.5 -179t-126 -138.5t-188 -52.5q-100 0 -202 64q-100 -39 -187 -39q-182 0 -316 128t-134 308t134 309t316 129q106 0 203 -51q33 33 80 33h96v-697q16 -10 41 -10q55 0 94 43 t54.5 113.5t21.5 127t6 115.5q0 256 -171 409t-435 153q-295 0 -464 -186.5t-169 -487.5q0 -305 176.5 -484.5t489.5 -179.5q86 0 158.5 9.5t74.5 9.5q29 0 53.5 -18.5t28.5 -47.5l13 -80q-154 -43 -328 -43q-393 0 -627.5 216t-234.5 618zM655 506q0 -119 74 -192.5 t182 -73.5q119 0 176 53v426q-61 55 -176 55q-109 0 -182.5 -74.5t-73.5 -193.5z" />
<glyph unicode="A" horiz-adv-x="1415" d="M10 0l465 1186q37 96 75 136t95 40h127q57 0 95 -40t75 -136l463 -1186h-264l-150 418q-151 112 -314 112h-3q-121 0 -158 -49q-4 12 -4 31q0 82 71.5 129t198.5 47q51 0 119 -14l-139 385q-14 37 -53 37q-41 0 -56 -37l-381 -1059h-262z" />
<glyph unicode="B" horiz-adv-x="1265" d="M143 0v1362h582q195 0 303.5 -102.5t108.5 -272.5q-1 -139 -138 -248q195 -127 195 -342q0 -397 -469 -397h-582zM389 217h340q104 0 160.5 53.5t56.5 135.5q0 104 -79 184t-277 80q-37 0 -72 -7.5t-51 -13.5l-16 -6q-8 18 -9 41q0 63 43 109.5t150 46.5q84 0 156 -19 q94 47 94 164q0 70 -55.5 115t-137.5 45h-303v-928z" />
<glyph unicode="C" horiz-adv-x="1372" d="M68 680q0 328 188.5 518.5t507.5 190.5q326 0 522 -240q-39 -70 -151 -139q-128 161 -368 161h-3q-209 0 -322.5 -129t-113.5 -362.5t113.5 -359t322.5 -125.5q156 0 287 108q29 27 82 27q86 0 178 -88q-96 -125 -238.5 -195t-308.5 -70q-319 0 -507.5 187.5 t-188.5 515.5z" />
<glyph unicode="D" horiz-adv-x="1378" d="M143 0v1362h475q305 0 499 -187.5t194 -494.5q0 -305 -191.5 -492.5t-492.5 -187.5h-484zM395 217h230q201 0 313.5 127t112.5 338t-115 337t-318 126h-223v-928z" />
<glyph unicode="E" horiz-adv-x="1132" d="M143 0v1362h867v-45q0 -72 -58.5 -122t-150.5 -50h-406v-330h502v-47q0 -72 -58.5 -122t-150.5 -50h-295v-379h459q92 0 150.5 -50t58.5 -122v-45h-918z" />
<glyph unicode="F" horiz-adv-x="1050" d="M143 0v1362h869v-45q0 -72 -58.5 -122t-150.5 -50h-408v-338h525v-47q0 -72 -58.5 -122t-148.5 -50h-318v-588h-252z" />
<glyph unicode="G" horiz-adv-x="1333" d="M68 686q0 319 190.5 511t550.5 192q209 0 422 -66q-29 -111 -113 -188q-158 55 -284 55q-240 0 -373 -132t-133 -390q0 -246 107.5 -364t334.5 -118q119 0 205 17v358q-90 33 -191 33q-80 0 -129 -27q-8 25 -8 45q0 74 80 115t207 41q180 0 291 -72v-655 q-57 -25 -201.5 -44.5t-261.5 -19.5q-180 0 -316.5 55.5t-217.5 154t-120.5 224.5t-39.5 275z" />
<glyph unicode="H" horiz-adv-x="1419" d="M143 0v1161q0 80 48.5 140.5t136.5 60.5h67v-547h631v346q0 82 47 141.5t137 59.5h66v-1362h-250v588h-631v-588h-252z" />
<glyph unicode="I" horiz-adv-x="538" d="M143 0v1161q0 80 48.5 140.5t136.5 60.5h67v-1362h-252z" />
<glyph unicode="J" horiz-adv-x="806" d="M18 18q0 98 43 199q92 -31 177 -31q182 0 182 181v794q0 80 48 140.5t136 60.5h68v-1004q0 -203 -116 -292t-296 -89q-115 0 -242 41z" />
<glyph unicode="K" horiz-adv-x="1275" d="M143 0v1362h252v-619h4l426 517q84 102 224 102h161l-571 -670l627 -692h-162q-164 0 -252 100l-453 514h-4v-614h-252z" />
<glyph unicode="L" horiz-adv-x="1056" d="M143 0v1161q0 80 48.5 140.5t136.5 60.5h67v-1145h424q92 0 150.5 -50t58.5 -122v-45h-885z" />
<glyph unicode="M" horiz-adv-x="1681" d="M143 0v1362h211q70 0 125.5 -38t79.5 -99l184 -510q47 -133 101 -330h6q45 172 100 328l187 512q20 61 77.5 99t126.5 38h197v-1362h-248v690q0 131 10 352h-8q-57 -180 -90 -272l-266 -729q-16 -41 -53 -41h-84q-37 0 -51 41l-269 729q-45 117 -90 272h-10 q14 -174 14 -350v-692h-250z" />
<glyph unicode="N" horiz-adv-x="1484" d="M143 0v1362h172q94 0 144 -72l395 -561q174 -250 244 -369q-6 217 -6 414v588h249v-1362h-176q-88 0 -145 80l-389 549q-115 160 -242 377q6 -297 6 -390v-616h-252z" />
<glyph unicode="O" horiz-adv-x="1490" d="M68 681.5q0 319.5 181 513.5t498.5 194t496.5 -196t179 -511q0 -322 -179 -513.5t-496 -191.5q-322 0 -501 192.5t-179 512zM328 682q0 -244 114.5 -365.5t305.5 -121.5q184 0 300.5 121.5t116.5 365.5q0 240 -115.5 364.5t-301.5 124.5q-190 0 -305 -123.5t-115 -365.5z " />
<glyph unicode="P" horiz-adv-x="1265" d="M143 0v1362h656q201 0 305 -101.5t104 -295.5q0 -193 -148.5 -325t-397.5 -132q-72 0 -120 18.5t-69.5 47t-29 52t-7.5 48.5q0 16 2 22q47 -26 129 -26h6q168 0 274.5 83t106.5 210q0 78 -57 130t-154 52h-348v-1145h-252z" />
<glyph unicode="Q" horiz-adv-x="1531" d="M68 681.5q0 319.5 181 513.5t498.5 194t496.5 -196t179 -511q0 -324 -180 -514q98 -45 193 -45q25 0 45 3t30 5l9 4q2 -8 2 -24q0 -18 -7.5 -38t-28 -43.5t-65.5 -38t-110 -14.5q-143 0 -267 54q-135 -53 -296 -54q-322 0 -501 192.5t-179 512zM322 682 q0 -242 117.5 -364.5t308.5 -122.5q184 0 303.5 121.5t119.5 365.5q0 240 -117.5 364.5t-305.5 124.5q-190 0 -308 -124.5t-118 -364.5z" />
<glyph unicode="R" horiz-adv-x="1363" d="M143 0v1362h650q178 0 308 -96.5t130 -282.5q0 -123 -75 -217t-189 -154q272 -190 376 -612h-253q-41 154 -112 268.5t-153 175t-157.5 88t-147.5 27.5q-61 0 -90 -18q-4 10 -4 22q0 131 250 170q125 20 215 83t90 163q0 76 -50 121t-124 45h-412v-1145h-252z" />
<glyph unicode="S" horiz-adv-x="1097" d="M41 154l12 20q66 111 172 110q20 0 45 -10q162 -84 312 -84q86 0 144 56.5t58 124.5q0 117 -149 170q-39 14 -120 37.5t-120 35.5q-147 53 -237 151.5t-90 244.5q0 176 124.5 277.5t333.5 101.5q244 -1 506 -177q-91 -118 -194 -118h-2q-31 0 -62 14q-123 68 -246 68 q-98 0 -151 -47.5t-53 -118.5q0 -78 57 -126t178 -81q203 -55 281 -101q90 -49 143 -139t53 -194q0 -166 -136 -279t-335 -113q-125 0 -272.5 51.5t-251.5 125.5z" />
<glyph unicode="T" horiz-adv-x="1200" d="M18 1145v43q0 74 58.5 124t150.5 50h955v-45q0 -72 -58.5 -122t-150.5 -50h-246v-1145h-252v1145h-457z" />
<glyph unicode="U" horiz-adv-x="1417" d="M135 561v600q0 82 48 141.5t139 59.5h65v-768q0 -211 81 -305t243 -94q156 0 237.5 90t81.5 309v567q0 82 48 141.5t139 59.5h65v-801q0 -586 -575 -586q-571 0 -572 586z" />
<glyph unicode="V" horiz-adv-x="1308" d="M10 1362h168q98 0 129 -84l295 -789q33 -86 51 -157h4q33 106 56 160l288 784q36 86 132 86h165l-532 -1362h-223z" />
<glyph unicode="W" horiz-adv-x="1894" d="M18 1362h162q104 0 133 -96l269 -910q31 160 47 228l168 696q20 82 112 82h78q88 0 111 -84l170 -700q33 -133 45 -222l268 910q31 96 129 96h166l-399 -1260q-33 -102 -144 -102h-139l-199 809q-41 178 -43 240h-8q-6 -74 -47 -244l-170 -694q-10 -49 -49 -80t-96 -31 h-131z" />
<glyph unicode="X" horiz-adv-x="1320" d="M18 0l496 690l-475 672h205q82 0 123 -57l239 -353q33 -47 53 -86h5q20 39 53 86l233 342q45 68 135 68h197l-473 -672l494 -690h-213q-68 0 -109 57l-262 377q-41 61 -55 90h-5q-20 -41 -57 -92l-256 -371q-41 -61 -113 -61h-215z" />
<glyph unicode="Y" horiz-adv-x="1300" d="M10 1362h187q88 0 133 -72l317 -514h4l318 516q43 70 135 70h186l-514 -813v-549h-252v549z" />
<glyph unicode="Z" horiz-adv-x="1187" d="M49 0v47q0 59 19.5 102.5t64.5 106.5l639 889h-711v43q0 74 58.5 124t150.5 50h844v-51q0 -84 -72 -185l-655 -909h754v-43q0 -74 -58.5 -124t-150.5 -50h-883z" />
<glyph unicode="[" horiz-adv-x="585" d="M72 -467v1843q0 66 47 113t112 47h283v-168h-231v-1669h231v-166h-442z" />
<glyph unicode="\" horiz-adv-x="1067" d="M-29 1479h80q61 0 123 -40t98 -104l824 -1335h-213z" />
<glyph unicode="]" horiz-adv-x="585" d="M72 -299h231v1669h-231v166h442v-1843q0 -66 -47 -113t-113 -47h-282v168z" />
<glyph unicode="^" horiz-adv-x="1110" d="M72 690l360 615q31 53 127 54t127 -52l352 -617l-190 -94l-293 506l-291 -506z" />
<glyph unicode="_" horiz-adv-x="1200" d="M0 -379q0 29 43 70t113 41h1044v-90q0 -29 -43 -69t-113 -40h-1044v88z" />
<glyph unicode="`" horiz-adv-x="425" d="M0 1409l86 78q25 23 58.5 21.5t54.5 -25.5l227 -277l-115 -102z" />
<glyph unicode="a" horiz-adv-x="1169" d="M57 487q0 213 123 362.5t348 149.5q207 0 291 -159q18 133 144 133h79v-973h-86q-59 0 -97 39t-40 106q-100 -168 -287 -168q-217 0 -346 140.5t-129 369.5zM279 485q0 -156 72.5 -238.5t197.5 -82.5q104 0 187 61.5t83 161.5v207q0 113 -81 166t-175 53 q-137 0 -210.5 -82t-73.5 -246z" />
<glyph unicode="b" horiz-adv-x="1177" d="M133 0v1479h80q63 0 104 -40t41 -104v-495q83 159 286 159h3q225 0 348 -149.5t123 -362.5q0 -229 -128 -369.5t-347 -140.5q-80 0 -165 30t-128 83q-4 -57 -35.5 -73.5t-101.5 -16.5h-80zM358 387q0 -100 83 -161.5t188 -61.5q125 0 197.5 83t72.5 238q0 164 -73.5 246 t-211.5 82q-94 0 -175 -53t-81 -166v-207z" />
<glyph unicode="c" horiz-adv-x="1003" d="M57 485q0 227 130 369.5t370 142.5q229 0 377 -168q-41 -86 -131 -129q-88 113 -254 113q-123 0 -196.5 -85t-73.5 -243q0 -166 77.5 -243.5t200.5 -77.5q94 0 195 67q25 18 55 19q37 0 80 -31q47 -35 63 -51q-68 -88 -172 -139.5t-221 -51.5q-233 0 -366.5 137.5 t-133.5 370.5z" />
<glyph unicode="d" horiz-adv-x="1175" d="M57 487q0 213 123 362.5t348 149.5q207 0 291 -159v495q0 63 40 103.5t104 40.5h79v-1479h-79q-68 0 -100 16.5t-36 73.5q-45 -53 -129 -83t-166 -30q-217 0 -346 140.5t-129 369.5zM279 485q0 -156 72.5 -238.5t197.5 -82.5q104 0 187 61.5t83 161.5v207q0 113 -81 166 t-175 53q-137 0 -210.5 -82t-73.5 -246z" />
<glyph unicode="e" horiz-adv-x="1071" d="M57 475q0 236 125 379t363 143q106 0 191 -36.5t136.5 -95t84 -134.5t45 -145.5t12.5 -139.5v-43h-738q39 -249 293 -249h2q182 0 369 125q25 -45 25 -78q0 -61 -123 -142.5t-279 -81.5q-238 0 -372 136.5t-134 361.5zM276 571h527q-12 121 -86 185.5t-178 64.5 q-111 0 -181.5 -64.5t-81.5 -185.5z" />
<glyph unicode="f" horiz-adv-x="724" d="M20 780v94q0 43 28 71t69 28h76v119q0 205 116.5 296t294.5 91q86 0 150 -23q1 -12 1 -25q0 -86 -38 -153q-49 14 -117 14q-184 0 -184 -178v-141h272v-99q0 -41 -28.5 -67.5t-69.5 -26.5h-174v-637q0 -63 -40 -103t-104 -40h-79v780h-173z" />
<glyph unicode="g" horiz-adv-x="1175" d="M57 485q0 229 129 371.5t346 142.5q80 0 165 -31.5t130 -84.5q4 57 36 73.5t100 16.5h79v-983q0 -254 -144 -385t-349 -131q-240 0 -365 106q-86 74 -86 148q0 37 18.5 60.5t33.5 29.5q31 -72 125 -116t249 -44q162 0 228.5 88t66.5 246v149q-83 -155 -288 -155h-3 q-225 0 -348 144t-123 355zM279 485q0 -311 284 -311q96 0 176 50t80 165v197q0 102 -84 164.5t-186 62.5q-125 0 -197.5 -85t-72.5 -243z" />
<glyph unicode="h" horiz-adv-x="1167" d="M127 0v1319q0 70 44 115t112 45h67v-568q121 88 258 88q217 0 324.5 -108.5t107.5 -294.5v-596h-223v598q0 98 -56 156.5t-153 58.5q-172 0 -258 -108v-705h-223z" />
<glyph unicode="i" horiz-adv-x="489" d="M125 1327q0 49 35 85t84 36t85 -36t36 -85t-36 -84t-85 -35t-84 35t-35 84zM133 0v829q0 63 40 103.5t103 40.5h80v-973h-223z" />
<glyph unicode="j" horiz-adv-x="489" d="M-209 -451q0 88 39 166q57 -12 117 -12q186 0 186 176v950q0 63 40 103.5t103 40.5h80v-1100q0 -379 -413 -379q-74 0 -152 23v32zM125 1327q0 49 35 85t84 36t85 -36t36 -85t-36 -84t-85 -35t-84 35t-35 84z" />
<glyph unicode="k" horiz-adv-x="966" d="M133 0v1335q0 63 41 103.5t105 40.5h79v-901l267 321q61 74 159 74h160l-416 -484l428 -489h-147q-119 0 -182 72l-269 325v-397h-225z" />
<glyph unicode="l" horiz-adv-x="489" d="M133 0v1335q0 63 40 103.5t103 40.5h80v-1479h-223z" />
<glyph unicode="m" horiz-adv-x="1820" d="M133 0v973h96q84 0 127 -62q121 88 252 88q238 0 340 -137q143 137 307 137q215 0 324 -108.5t109 -294.5v-596h-224v598q0 98 -56 156.5t-153 58.5q-145 0 -241 -115q8 -43 8 -102v-596h-223v598q0 100 -48.5 157.5t-142.5 57.5q-166 0 -252 -108v-705h-223z" />
<glyph unicode="n" horiz-adv-x="1179" d="M133 0v973h96q84 0 127 -62q121 88 258 88q217 0 325 -108.5t108 -294.5v-596h-224v598q0 98 -56 156.5t-153 58.5q-172 0 -258 -108v-705h-223z" />
<glyph unicode="o" horiz-adv-x="1097" d="M57 487q0 225 129 367.5t363 142.5q231 0 361 -140.5t130 -369.5q0 -225 -129 -367.5t-362 -142.5q-229 0 -360.5 138.5t-131.5 371.5zM279 487q0 -166 75.5 -244.5t194.5 -78.5q121 0 196.5 82.5t75.5 240.5q0 156 -74.5 241t-197.5 85t-196.5 -85t-73.5 -241z" />
<glyph unicode="p" horiz-adv-x="1171" d="M133 -506v1479h80q68 0 99.5 -16.5t35.5 -73.5q45 53 130 84.5t165 31.5q217 0 345 -140t128 -372q0 -211 -123 -360.5t-346 -149.5q-209 0 -291 156v-495q0 -63 -40 -103.5t-103 -40.5h-80zM356 379q0 -113 80 -164t176 -51q137 0 211 82t74 243q0 158 -72.5 241 t-197.5 83q-102 0 -186.5 -62.5t-84.5 -164.5v-207z" />
<glyph unicode="q" horiz-adv-x="1175" d="M57 485q0 229 129 371.5t346 142.5q80 0 165 -31.5t130 -84.5q4 57 36 73.5t100 16.5h79v-1479h-79q-63 0 -103.5 40t-40.5 104v495q-82 -156 -291 -156q-225 0 -348 147.5t-123 360.5zM279 485q0 -321 282 -321h2q96 0 176 51t80 164v207q0 102 -84 164.5t-186 62.5 q-125 0 -197.5 -85t-72.5 -243z" />
<glyph unicode="r" horiz-adv-x="724" d="M133 0v973h105q106 0 118 -82q97 108 255 108h3q54 0 91 -16v-11q0 -88 -60 -171q-20 4 -37 4q-106 0 -179 -56.5t-73 -154.5v-483q0 -45 -33.5 -78t-78.5 -33h-111z" />
<glyph unicode="s" horiz-adv-x="823" d="M37 119l12 18q66 96 129 96q20 0 92 -37.5t158 -37.5q76 0 121 30.5t45 79.5t-42 79t-146 59l-66 16q-135 35 -207 100.5t-72 184.5q0 133 106.5 212.5t240.5 79.5q209 0 358 -114l-8 -15q-57 -102 -137 -102q-6 0 -72 25.5t-141 25.5q-72 0 -112 -29.5t-40 -78.5 q0 -45 39 -69t164 -62l82 -23q241 -70 241 -299q0 -121 -99 -201t-259 -80q-207 0 -387 142z" />
<glyph unicode="t" horiz-adv-x="774" d="M20 780v94q0 43 28 71t69 28h76v389h79q63 0 103.5 -40t40.5 -103v-246h272v-99q0 -41 -28.5 -67.5t-69.5 -26.5h-174v-440q0 -176 182 -176q63 0 117 12q38 -61 38 -151q0 -12 -1 -25q-55 -23 -150 -23q-176 0 -292.5 91.5t-116.5 296.5v415h-173z" />
<glyph unicode="u" horiz-adv-x="1167" d="M127 381v432q0 70 44 115t112 45h67v-594q0 -98 56.5 -156.5t152.5 -58.5q170 0 258 110v539q0 70 44 115t112 45h67v-973h-96q-86 0 -127 61q-115 -84 -258 -84q-217 0 -324.5 108t-107.5 296z" />
<glyph unicode="v" horiz-adv-x="958" d="M10 973h144q43 0 79.5 -23.5t49.5 -60.5l196 -563l197 561q31 86 131 86h141l-381 -973h-176z" />
<glyph unicode="w" horiz-adv-x="1546" d="M10 973h137q43 0 80 -23.5t49 -60.5l193 -557l225 641h176l224 -641l180 555q12 39 55 62.5t86 23.5h121l-348 -973h-172l-238 678l-237 -678h-172z" />
<glyph unicode="x" horiz-adv-x="1024" d="M10 0l359 492l-344 481h178q84 0 123 -58l190 -286l186 278q43 66 136 66h172l-346 -481l350 -492h-199q-68 0 -110 68l-191 286l-184 -272q-57 -82 -129 -82h-191z" />
<glyph unicode="y" horiz-adv-x="1067" d="M10 973h131q49 0 90 -23.5t56 -58.5l243 -590l250 590q16 35 56.5 58.5t89.5 23.5h131l-611 -1399q-16 -35 -55 -57.5t-86 -22.5h-133l238 541z" />
<glyph unicode="z" horiz-adv-x="903" d="M49 0v39q0 66 55 141l422 600h-460v84q0 45 27.5 77t68.5 32h684v-37q0 -63 -49 -131l-432 -612h489v-95q0 -41 -29.5 -69.5t-68.5 -28.5h-707z" />
<glyph unicode="{" horiz-adv-x="733" d="M72 432v164q84 0 128 50t44 134v381q0 205 83 289t300 84h14v-86q0 -23 -23.5 -53.5t-66.5 -40.5q-61 -16 -86 -53t-25 -117v-373q0 -221 -131 -297q131 -76 131 -297v-373q0 -80 24.5 -116.5t86.5 -53.5q43 -10 66.5 -40.5t23.5 -53.5v-86h-14q-217 0 -300 84t-83 289 v381q0 84 -44 134t-128 50z" />
<glyph unicode="|" horiz-adv-x="833" d="M307 -506v1839q0 39 36 71t79 32h84v-1942h-199z" />
<glyph unicode="}" horiz-adv-x="733" d="M72 -420q0 23 23.5 53.5t66.5 40.5q61 16 85.5 53t24.5 117v373q0 221 131 297q-131 76 -131 297v373q0 80 -24.5 116.5t-85.5 53.5q-43 10 -66.5 40.5t-23.5 53.5v86h14q217 0 300 -84t83 -289v-381q0 -84 44 -134t128 -50v-164q-84 0 -128 -50t-44 -134v-381 q0 -205 -83 -289t-300 -84h-14v86z" />
<glyph unicode="~" horiz-adv-x="1069" d="M72 446q23 129 94.5 217.5t189.5 88.5q82 0 211 -78q121 -78 183 -78q86 0 124 145l35 -10q35 -10 61.5 -47t26.5 -86q0 -74 -72.5 -139.5t-174.5 -65.5q-82 0 -211 78q-4 4 -22.5 14.5t-26 15.5t-23.5 14t-26.5 13t-26 9.5t-29.5 7.5t-29 2q-51 0 -77.5 -39t-47.5 -105z " />
<glyph unicode="&#xa1;" horiz-adv-x="440" d="M70 6l39 576h184l41 -578l-2 -197q0 -63 -41 -103t-103 -40h-118v342zM74 774v252h252v-137q0 -49 -37 -82t-90 -33h-125z" />
<glyph unicode="&#xa2;" horiz-adv-x="1003" d="M57 676q0 209 109.5 347t316.5 161v67q0 33 30 58.5t65 25.5h45v-151q186 -25 311 -164q-41 -86 -131 -129q-63 82 -180 104v-635q57 14 129 62q25 18 55 18q37 0 80 -30q47 -35 63 -52q-123 -158 -327 -186v-172h-140v172q-201 20 -313.5 155.5t-112.5 348.5zM279 676 q0 -268 204 -316v637q-96 -23 -150 -104.5t-54 -216.5z" />
<glyph unicode="&#xa3;" horiz-adv-x="1056" d="M18 0v94q0 41 30 70t71 29h92v395h-193v92q0 45 28 72.5t69 27.5h96v133q0 207 112.5 340t325.5 133q231 0 379 -167q-45 -88 -131 -129q-90 113 -256 112q-104 0 -160.5 -77.5t-56.5 -198.5v-146h321v-98q0 -41 -28.5 -67.5t-71.5 -26.5h-221v-395h567v-95 q0 -41 -29.5 -69.5t-70.5 -28.5h-873z" />
<glyph unicode="&#xa5;" horiz-adv-x="1300" d="M10 1362h187q88 0 133 -72l317 -514h4l318 516q43 70 135 70h186l-469 -741h260v-58q0 -41 -28.5 -67.5t-69.5 -26.5h-207v-117h305v-57q0 -43 -27.5 -69.5t-70.5 -26.5h-207v-199h-252v199h-305v53q0 45 27.5 72.5t68.5 27.5h209v117h-305v51q0 45 27.5 73t68.5 28h164z " />
<glyph unicode="&#xa7;" horiz-adv-x="888" d="M72 565q0 133 123 213q-98 76 -99 207q0 133 106.5 213t239.5 80q209 0 359 -115l-8 -14q-57 -102 -138 -102q-8 0 -73.5 25.5t-139.5 25.5q-72 0 -111.5 -30t-39.5 -79q0 -45 39 -68.5t164 -62.5l81 -22q242 -70 242 -301q0 -135 -123 -216q98 -72 98.5 -204.5 t-106 -212.5t-240.5 -80q-209 0 -358 115l8 14q57 102 137 102q8 0 74 -25.5t139 -25.5q72 0 112 29.5t40 79.5q0 45 -39 68.5t-164 62.5l-82 22q-242 70 -241 301zM260 553q0 -117 203 -117q70 0 118 32t48 79q0 117 -203 117q-70 0 -118 -33t-48 -78z" />
<glyph unicode="&#xa8;" horiz-adv-x="712" d="M0 1257q0 57 40 97.5t95 40.5q57 0 97 -40t40 -98q0 -55 -39.5 -95t-97.5 -40q-55 0 -95 40t-40 95zM440 1257q0 57 40 97.5t95 40.5q57 0 97.5 -40t40.5 -98q0 -55 -40 -95t-98 -40q-55 0 -95 40t-40 95z" />
<glyph unicode="&#xa9;" horiz-adv-x="1544" d="M72 676q0 291 204.5 495.5t495.5 204.5t496 -204.5t205 -495.5t-205 -496t-496 -205t-495.5 205t-204.5 496zM154 676q0 -256 181 -437.5t437 -181.5t437.5 181.5t181.5 437.5t-181.5 437t-437.5 181t-437 -181t-181 -437zM389 672q0 182 103.5 286.5t279.5 104.5 q182 0 287 -133q-20 -37 -84 -76q-70 88 -203 88q-115 0 -177.5 -70.5t-62.5 -199.5q0 -127 62.5 -196.5t177.5 -69.5q82 0 158 59q14 14 45 14q47 0 98 -47q-111 -145 -301 -145q-176 0 -279.5 103.5t-103.5 281.5z" />
<glyph unicode="&#xaa;" horiz-adv-x="876" d="M43 997q0 160 92 272.5t260 112.5q158 0 219 -120q12 100 107 100h61v-729h-61q-45 0 -75 29.5t-32 78.5q-76 -125 -215 -125q-164 0 -260 104.5t-96 276.5zM209 997q0 -117 54 -179t149 -62q78 0 140 46t62 122v153q0 86 -60 126t-132 40q-213 0 -213 -246z" />
<glyph unicode="&#xab;" horiz-adv-x="972" d="M74 506q0 33 22 51l291 270l102 -114l-217 -211l217 -211l-102 -115l-291 270q-27 23 -22 60zM485 506q0 33 23 51l291 270l102 -114l-217 -211l217 -211l-102 -115l-291 270q-27 23 -23 60z" />
<glyph unicode="&#xac;" d="M117 506v137q0 49 36.5 82t90.5 33h125v-252h-252z" />
<glyph unicode="&#xad;" horiz-adv-x="724" d="M29 483v92q0 45 27.5 73t68.5 28h571v-98q0 -41 -28.5 -68t-69.5 -27h-569z" />
<glyph unicode="&#xae;" horiz-adv-x="1544" d="M72 676q0 291 204.5 495.5t495.5 204.5t496 -204.5t205 -495.5t-205 -496t-496 -205t-495.5 205t-204.5 496zM154 676q0 -256 181 -437.5t437 -181.5t437.5 181.5t181.5 437.5t-181.5 437t-437.5 181t-437 -181t-181 -437zM485 313v750h357q96 0 168.5 -56.5t72.5 -152.5 q0 -127 -145 -205q147 -102 207 -336h-139q-41 160 -133.5 234t-180.5 74q-35 0 -51 -11v13q0 74 137 94q68 10 118 45t50 90q0 41 -27.5 65.5t-68.5 24.5h-227v-629h-138z" />
<glyph unicode="&#xaf;" horiz-adv-x="495" d="M0 1169v80q0 27 41 64t109 37h346v-82q0 -27 -41 -63t-109 -36h-346z" />
<glyph unicode="&#xb0;" horiz-adv-x="739" d="M72 1186q0 125 87 212t210 87q125 0 212 -87t87 -212q0 -123 -87 -210t-212 -87q-123 0 -210 87t-87 210zM203 1185.5q0 -69.5 48 -117.5t117.5 -48t119 48t49.5 118q0 72 -49.5 120t-119 48t-117.5 -49.5t-48 -119z" />
<glyph unicode="&#xb1;" horiz-adv-x="978" d="M57 -25v93q0 45 28 72.5t69 27.5h766v-98q0 -41 -29 -68t-70 -27h-764zM57 522v92q0 45 28 73t69 28h239v311h92q45 0 73 -27.5t28 -66.5v-217h334v-99q0 -41 -29 -67.5t-70 -26.5h-235v-276h-99q-41 0 -67.5 28.5t-26.5 71.5v176h-336z" />
<glyph unicode="&#xb4;" horiz-adv-x="425" d="M0 1206l227 277q20 25 54 25.5t59 -21.5l86 -78l-311 -305z" />
<glyph unicode="&#xb5;" d="M117 506v137q0 49 36.5 82t90.5 33h125v-252h-252z" />
<glyph unicode="&#xb6;" horiz-adv-x="1103" d="M72 891q0 201 125 336t325 135h256q51 0 86 -32t35 -77v-1144q0 -45 -35 -77t-86 -32h-61v1204h-193v-1204h-121v434q-154 41 -242.5 162t-88.5 295z" />
<glyph unicode="&#xb7;" d="M117 506v137q0 49 36.5 82t90.5 33h125v-252h-252z" />
<glyph unicode="&#xb8;" horiz-adv-x="423" d="M0 -393l33 149q55 -27 119 -26q84 0 84 45q0 59 -99 82l37 172h154l-27 -117q123 -25 123 -162q0 -92 -78 -135t-173 -40t-173 32z" />
<glyph unicode="&#xba;" horiz-adv-x="823" d="M43 995q0 170 96.5 277.5t272.5 107.5q174 0 271 -105.5t97 -279.5q0 -168 -96 -274.5t-272 -106.5q-172 0 -270.5 103.5t-98.5 277.5zM209 995q0 -123 57.5 -182t145.5 -59q90 0 147 61t57 180q0 117 -56 181.5t-148.5 64.5t-147.5 -64.5t-55 -181.5z" />
<glyph unicode="&#xbb;" horiz-adv-x="972" d="M72 291l217 211l-217 211l102 114l291 -270q23 -18 22 -51q4 -37 -22 -60l-291 -270zM483 291l217 211l-217 211l103 114l291 -270q23 -18 22 -51q4 -37 -22 -60l-291 -270z" />
<glyph unicode="&#xbf;" horiz-adv-x="841" d="M29 16q0 98 30.5 170t77.5 107t101.5 66.5t101.5 54t78 65.5t31 103h186q0 -104 -25.5 -177t-65.5 -107t-85 -62.5t-85 -48t-65.5 -62.5t-25.5 -109q0 -72 46 -119t128 -47q53 0 114.5 22t94.5 56q57 -8 105 -55t52 -90q-143 -145 -368 -145q-207 0 -316.5 99t-109.5 279 zM416 774v252h252v-137q0 -49 -37 -82t-90 -33h-125z" />
<glyph unicode="&#xc0;" horiz-adv-x="1415" d="M10 0l465 1186q37 96 75 136t95 40h127q57 0 95 -40t75 -136l463 -1186h-264l-150 418q-152 113 -317 112q-121 0 -158 -49q-4 12 -4 31q0 82 71.5 129t198.5 47q51 0 119 -14l-139 385q-14 37 -53 37q-41 0 -56 -37l-381 -1059h-262zM424 1743l86 78q25 23 58.5 21.5 t54.5 -25.5l227 -277l-115 -102z" />
<glyph unicode="&#xc1;" horiz-adv-x="1415" d="M10 0l465 1186q37 96 75 136t95 40h127q57 0 95 -40t75 -136l463 -1186h-264l-150 418q-152 113 -317 112q-121 0 -158 -49q-4 12 -4 31q0 82 71.5 129t198.5 47q51 0 119 -14l-139 385q-14 37 -53 37q-41 0 -56 -37l-381 -1059h-262zM553 1540l227 277q20 25 54 25.5 t59 -21.5l86 -78l-311 -305z" />
<glyph unicode="&#xc2;" horiz-adv-x="1415" d="M10 0l465 1186q37 96 75 136t95 40h127q57 0 95 -40t75 -136l463 -1186h-264l-150 418q-152 113 -317 112q-121 0 -158 -49q-4 12 -4 31q0 82 71.5 129t198.5 47q51 0 119 -14l-139 385q-14 37 -53 37q-41 0 -56 -37l-381 -1059h-262zM424 1530l229 291q23 27 60 22 q33 0 51 -22l229 -291l-114 -82l-170 197l-170 -197z" />
<glyph unicode="&#xc3;" horiz-adv-x="1415" d="M10 0l465 1186q37 96 75 136t95 40h127q57 0 95 -40t75 -136l463 -1186h-264l-150 418q-152 113 -317 112q-121 0 -158 -49q-4 12 -4 31q0 82 71.5 129t198.5 47q51 0 119 -14l-139 385q-14 37 -53 37q-41 0 -56 -37l-381 -1059h-262zM348 1507q39 84 96.5 138.5 t126.5 54.5q59 0 140.5 -37t119.5 -37q76 0 121 72l119 -60q-39 -84 -96 -138t-127 -54q-59 0 -140 37t-120 37q-76 0 -121 -72z" />
<glyph unicode="&#xc4;" horiz-adv-x="1415" d="M10 0l465 1186q37 96 75 136t95 40h127q57 0 95 -40t75 -136l463 -1186h-264l-150 418q-152 113 -317 112q-121 0 -158 -49q-4 12 -4 31q0 82 71.5 129t198.5 47q51 0 119 -14l-139 385q-14 37 -53 37q-41 0 -56 -37l-381 -1059h-262zM352 1589q0 57 40 97t95 40 q57 0 97.5 -39.5t40.5 -97.5q0 -55 -40 -95t-98 -40q-55 0 -95 40t-40 95zM793 1589q0 57 39.5 97t95.5 40q57 0 97 -39.5t40 -97.5q0 -55 -40 -95t-97 -40q-55 0 -95 40t-40 95z" />
<glyph unicode="&#xc5;" horiz-adv-x="1415" d="M10 0l465 1186q37 96 75 136t95 40h127q57 0 95 -40t75 -136l463 -1186h-264l-150 418q-152 113 -317 112q-121 0 -158 -49q-4 12 -4 31q0 82 71.5 129t198.5 47q51 0 119 -14l-139 385q-14 37 -53 37q-41 0 -56 -37l-381 -1059h-262zM483 1587q0 94 65.5 159.5t160 65.5 t160 -65.5t65.5 -159.5t-65.5 -159.5t-160 -65.5t-160 65.5t-65.5 159.5zM606 1587q0 -43 30 -72.5t73 -29.5t72.5 29.5t29.5 72.5t-29.5 73t-72.5 30t-73 -30t-30 -73z" />
<glyph unicode="&#xc6;" horiz-adv-x="1804" d="M0 0l573 1186q86 176 256 176h852v-45q0 -72 -58 -123t-150 -51h-373v-328h469v-47q0 -72 -58.5 -122t-150.5 -50h-262v-377h426q92 0 150.5 -51t58.5 -123v-45h-877v506q-68 25 -141 24q-80 0 -117 -49q-4 12 -4 31q0 74 42 125t126 51q25 0 94 -12v469 q-43 0 -65.5 -16.5t-42.5 -59.5l-486 -1069h-262z" />
<glyph unicode="&#xc7;" horiz-adv-x="1372" d="M68 680q0 328 188 518.5t508 190.5q326 0 522 -240q-39 -70 -151 -139q-129 162 -371 161q-209 0 -322.5 -129t-113.5 -362.5t113.5 -359t322.5 -125.5q156 0 287 108q29 27 82 27q86 0 178 -88q-176 -231 -471 -260l-23 -97q123 -25 123 -161q0 -92 -78 -135.5 t-173 -40.5t-173 32l33 150q55 -27 119 -27q84 0 84 45q0 59 -99 82l33 152q-287 23 -452.5 208t-165.5 490z" />
<glyph unicode="&#xc8;" horiz-adv-x="1132" d="M143 0v1362h867v-45q0 -72 -58.5 -122t-150.5 -50h-406v-330h502v-47q0 -72 -58.5 -122t-150.5 -50h-295v-379h459q92 0 150.5 -50t58.5 -122v-45h-918zM291 1743l86 78q25 23 58.5 21.5t53.5 -25.5l228 -277l-115 -102z" />
<glyph unicode="&#xc9;" horiz-adv-x="1132" d="M143 0v1362h867v-45q0 -72 -58.5 -122t-150.5 -50h-406v-330h502v-47q0 -72 -58.5 -122t-150.5 -50h-295v-379h459q92 0 150.5 -50t58.5 -122v-45h-918zM420 1540l227 277q20 25 54 25.5t59 -21.5l86 -78l-311 -305z" />
<glyph unicode="&#xca;" horiz-adv-x="1132" d="M143 0v1362h867v-45q0 -72 -58.5 -122t-150.5 -50h-406v-330h502v-47q0 -72 -58.5 -122t-150.5 -50h-295v-379h459q92 0 150.5 -50t58.5 -122v-45h-918zM291 1530l229 291q23 27 60 22q33 0 51 -22l229 -291l-115 -82l-170 197l-169 -197z" />
<glyph unicode="&#xcb;" horiz-adv-x="1132" d="M143 0v1362h867v-45q0 -72 -58.5 -122t-150.5 -50h-406v-330h502v-47q0 -72 -58.5 -122t-150.5 -50h-295v-379h459q92 0 150.5 -50t58.5 -122v-45h-918zM219 1589q0 57 40 97t95 40q57 0 97.5 -39.5t40.5 -97.5q0 -55 -40 -95t-98 -40q-55 0 -95 40t-40 95zM659 1589 q0 57 40 97t96 40q57 0 97 -39.5t40 -97.5q0 -55 -40 -95t-97 -40q-55 0 -95.5 40t-40.5 95z" />
<glyph unicode="&#xcc;" horiz-adv-x="538" d="M-14 1743l86 78q25 23 58.5 21.5t53.5 -25.5l228 -277l-115 -102zM143 0v1161q0 80 48.5 140.5t136.5 60.5h67v-1362h-252z" />
<glyph unicode="&#xcd;" horiz-adv-x="538" d="M115 1540l227 277q20 25 54 25.5t59 -21.5l86 -78l-312 -305zM143 0v1161q0 80 48.5 140.5t136.5 60.5h67v-1362h-252z" />
<glyph unicode="&#xce;" horiz-adv-x="538" d="M-14 1530l229 291q23 27 59 22q33 0 52 -22l229 -291l-115 -82l-170 197l-170 -197zM143 0v1161q0 80 48.5 140.5t136.5 60.5h67v-1362h-252z" />
<glyph unicode="&#xcf;" horiz-adv-x="538" d="M-86 1589q0 57 40 97t95 40q57 0 97 -39.5t40 -97.5q0 -55 -40 -95t-97 -40q-55 0 -95 40t-40 95zM143 0v1161q0 80 48.5 140.5t136.5 60.5h67v-1362h-252zM354 1589q0 57 40 97t95 40q57 0 97.5 -39.5t40.5 -97.5q0 -55 -40 -95t-98 -40q-55 0 -95 40t-40 95z" />
<glyph unicode="&#xd0;" horiz-adv-x="1378" d="M-2 614v70q0 45 28.5 73.5t67.5 28.5h49v576h475q305 0 499 -187.5t194 -494.5q0 -305 -191.5 -492.5t-492.5 -187.5h-484v614h-145zM395 217h230q201 0 313.5 127t112.5 338t-115 337t-318 126h-223v-359h211v-77q0 -43 -28.5 -69t-71.5 -26h-111v-397z" />
<glyph unicode="&#xd1;" horiz-adv-x="1484" d="M143 0v1362h172q94 0 144 -72l395 -561q174 -250 244 -369q-6 217 -6 414v588h249v-1362h-176q-88 0 -145 80l-389 549q-115 160 -242 377q6 -297 6 -390v-616h-252zM381 1507q39 84 96.5 138.5t126.5 54.5q59 0 140 -37t120 -37q76 0 121 72l119 -60q-39 -84 -96.5 -138 t-126.5 -54q-59 0 -140.5 37t-119.5 37q-76 0 -121 -72z" />
<glyph unicode="&#xd2;" horiz-adv-x="1490" d="M68 681.5q0 319.5 181 513.5t498.5 194t496.5 -196t179 -511q0 -322 -179 -513.5t-496 -191.5q-322 0 -501 192.5t-179 512zM328 682q0 -244 114.5 -365.5t305.5 -121.5q184 0 300.5 121.5t116.5 365.5q0 240 -115.5 364.5t-301.5 124.5q-190 0 -305 -123.5t-115 -365.5z M463 1743l86 78q25 23 58.5 21.5t54.5 -25.5l227 -277l-115 -102z" />
<glyph unicode="&#xd3;" horiz-adv-x="1490" d="M68 681.5q0 319.5 181 513.5t498.5 194t496.5 -196t179 -511q0 -322 -179 -513.5t-496 -191.5q-322 0 -501 192.5t-179 512zM328 682q0 -244 114.5 -365.5t305.5 -121.5q184 0 300.5 121.5t116.5 365.5q0 240 -115.5 364.5t-301.5 124.5q-190 0 -305 -123.5t-115 -365.5z M592 1540l227 277q20 25 54 25.5t59 -21.5l86 -78l-311 -305z" />
<glyph unicode="&#xd4;" horiz-adv-x="1490" d="M68 681.5q0 319.5 181 513.5t498.5 194t496.5 -196t179 -511q0 -322 -179 -513.5t-496 -191.5q-322 0 -501 192.5t-179 512zM328 682q0 -244 114.5 -365.5t305.5 -121.5q184 0 300.5 121.5t116.5 365.5q0 240 -115.5 364.5t-301.5 124.5q-190 0 -305 -123.5t-115 -365.5z M463 1530l229 291q23 27 60 22q33 0 51 -22l229 -291l-114 -82l-170 197l-170 -197z" />
<glyph unicode="&#xd5;" horiz-adv-x="1490" d="M68 681.5q0 319.5 181 513.5t498.5 194t496.5 -196t179 -511q0 -322 -179 -513.5t-496 -191.5q-322 0 -501 192.5t-179 512zM328 682q0 -244 114.5 -365.5t305.5 -121.5q184 0 300.5 121.5t116.5 365.5q0 240 -115.5 364.5t-301.5 124.5q-190 0 -305 -123.5t-115 -365.5z M387 1507q39 84 96.5 138.5t126.5 54.5q59 0 140 -37t120 -37q76 0 121 72l119 -60q-39 -84 -96.5 -138t-126.5 -54q-59 0 -140 37t-120 37q-76 0 -121 -72z" />
<glyph unicode="&#xd6;" horiz-adv-x="1490" d="M68 681.5q0 319.5 181 513.5t498.5 194t496.5 -196t179 -511q0 -322 -179 -513.5t-496 -191.5q-322 0 -501 192.5t-179 512zM328 682q0 -244 114.5 -365.5t305.5 -121.5q184 0 300.5 121.5t116.5 365.5q0 240 -115.5 364.5t-301.5 124.5q-190 0 -305 -123.5t-115 -365.5z M391 1589q0 57 40 97t95 40q57 0 97.5 -39.5t40.5 -97.5q0 -55 -40 -95t-98 -40q-55 0 -95 40t-40 95zM831 1589q0 57 40 97t96 40q57 0 97 -39.5t40 -97.5q0 -55 -40 -95t-97 -40q-55 0 -95.5 40t-40.5 95z" />
<glyph unicode="&#xd8;" horiz-adv-x="1490" d="M68 0l157 193q-158 188 -157 489q0 319 181 513t499 194q217 0 378 -101l62 74h237l-159 -195q158 -188 157 -485q0 -322 -179 -513.5t-496 -191.5q-221 0 -381 97l-62 -74h-237zM328 682q0 -174 61 -291l590 717q-96 63 -231 63q-190 0 -305 -123.5t-115 -365.5z M514 256q94 -61 234 -61q184 0 300.5 121.5t116.5 365.5q0 172 -63 287z" />
<glyph unicode="&#xd9;" horiz-adv-x="1417" d="M135 561v600q0 82 48 141.5t139 59.5h65v-768q0 -211 81 -305t243 -94q156 0 237.5 90t81.5 309v567q0 82 48 141.5t139 59.5h65v-801q0 -586 -575 -586q-571 0 -572 586zM438 1743l86 78q25 23 58.5 21.5t54.5 -25.5l227 -277l-114 -102z" />
<glyph unicode="&#xda;" horiz-adv-x="1417" d="M135 561v600q0 82 48 141.5t139 59.5h65v-768q0 -211 81 -305t243 -94q156 0 237.5 90t81.5 309v567q0 82 48 141.5t139 59.5h65v-801q0 -586 -575 -586q-571 0 -572 586zM567 1540l228 277q20 25 54 25.5t58 -21.5l86 -78l-311 -305z" />
<glyph unicode="&#xdb;" horiz-adv-x="1417" d="M135 561v600q0 82 48 141.5t139 59.5h65v-768q0 -211 81 -305t243 -94q156 0 237.5 90t81.5 309v567q0 82 48 141.5t139 59.5h65v-801q0 -586 -575 -586q-571 0 -572 586zM438 1530l230 291q23 27 59 22q33 0 51 -22l230 -291l-115 -82l-170 197l-170 -197z" />
<glyph unicode="&#xdc;" horiz-adv-x="1417" d="M135 561v600q0 82 48 141.5t139 59.5h65v-768q0 -211 81 -305t243 -94q156 0 237.5 90t81.5 309v567q0 82 48 141.5t139 59.5h65v-801q0 -586 -575 -586q-571 0 -572 586zM367 1589q0 57 39.5 97t95.5 40q57 0 97 -39.5t40 -97.5q0 -55 -40 -95t-97 -40q-55 0 -95 40 t-40 95zM807 1589q0 57 40 97t95 40q57 0 97 -39.5t40 -97.5q0 -55 -40 -95t-97 -40q-55 0 -95 40t-40 95z" />
<glyph unicode="&#xdd;" horiz-adv-x="1300" d="M10 1362h187q88 0 133 -72l317 -514h4l318 516q43 70 135 70h186l-514 -813v-549h-252v549zM496 1540l227 277q20 25 54 25.5t59 -21.5l86 -78l-312 -305z" />
<glyph unicode="&#xde;" horiz-adv-x="1265" d="M143 0v1161q0 80 48.5 140.5t136.5 60.5h67v-287h404q201 0 305 -101.5t104 -295.5q0 -193 -148.5 -325t-397.5 -132q-72 0 -120 18.5t-69.5 47t-29 52t-7.5 48.5q0 16 2 23q49 -27 135 -27q168 0 274.5 83t106.5 210q0 78 -57 130t-154 52h-348v-858h-252z" />
<glyph unicode="&#xdf;" horiz-adv-x="1177" d="M123 780v94q0 43 27.5 71t68.5 28h55v119q0 205 117 296t295 91q162 0 276.5 -94.5t114.5 -227.5q0 -74 -34.5 -133t-84 -96t-97.5 -69t-83 -69.5t-35 -82.5q0 -49 40 -79t139 -59l41 -12q127 -35 195.5 -101.5t68.5 -185.5q0 -133 -97.5 -213t-222.5 -80 q-176 0 -350 129l8 15q27 49 63 75.5t66 26.5q6 0 71.5 -32.5t141.5 -32.5q135 0 135 108q0 45 -38.5 70.5t-153.5 64.5l-55 19q-229 70 -230 299q0 66 33 120t80 91t93 68.5t79 70.5t33 80q0 59 -58.5 101t-142.5 42q-184 0 -184 -178v-971q0 -63 -40 -103t-104 -40h-80 v780h-151z" />
<glyph unicode="&#xe0;" horiz-adv-x="1169" d="M57 487q0 213 123 362.5t348 149.5q207 0 291 -159q18 133 144 133h79v-973h-86q-59 0 -97 39t-40 106q-100 -168 -287 -168q-217 0 -346 140.5t-129 369.5zM248 1409l86 78q25 23 58.5 21.5t53.5 -25.5l228 -277l-115 -102zM279 485q0 -156 72.5 -238.5t197.5 -82.5 q104 0 187 61.5t83 161.5v207q0 113 -81 166t-175 53q-137 0 -210.5 -82t-73.5 -246z" />
<glyph unicode="&#xe1;" horiz-adv-x="1169" d="M57 487q0 213 123 362.5t348 149.5q207 0 291 -159q18 133 144 133h79v-973h-86q-59 0 -97 39t-40 106q-100 -168 -287 -168q-217 0 -346 140.5t-129 369.5zM279 485q0 -156 72.5 -238.5t197.5 -82.5q104 0 187 61.5t83 161.5v207q0 113 -81 166t-175 53 q-137 0 -210.5 -82t-73.5 -246zM377 1206l227 277q20 25 54 25.5t59 -21.5l86 -78l-311 -305z" />
<glyph unicode="&#xe2;" horiz-adv-x="1169" d="M57 487q0 213 123 362.5t348 149.5q207 0 291 -159q18 133 144 133h79v-973h-86q-59 0 -97 39t-40 106q-100 -168 -287 -168q-217 0 -346 140.5t-129 369.5zM248 1196l229 291q23 27 60 22q33 0 51 -22l229 -291l-115 -82l-170 197l-170 -197zM279 485 q0 -156 72.5 -238.5t197.5 -82.5q104 0 187 61.5t83 161.5v207q0 113 -81 166t-175 53q-137 0 -210.5 -82t-73.5 -246z" />
<glyph unicode="&#xe3;" horiz-adv-x="1169" d="M57 487q0 213 123 362.5t348 149.5q207 0 291 -159q18 133 144 133h79v-973h-86q-59 0 -97 39t-40 106q-100 -168 -287 -168q-217 0 -346 140.5t-129 369.5zM172 1174q39 84 96.5 138t126.5 54q59 0 140 -37t120 -37q76 0 121 72l119 -59q-39 -84 -96.5 -138.5 t-126.5 -54.5q-59 0 -140 37t-120 37q-76 0 -121 -72zM279 485q0 -156 72.5 -238.5t197.5 -82.5q104 0 187 61.5t83 161.5v207q0 113 -81 166t-175 53q-137 0 -210.5 -82t-73.5 -246z" />
<glyph unicode="&#xe4;" horiz-adv-x="1169" d="M57 487q0 213 123 362.5t348 149.5q207 0 291 -159q18 133 144 133h79v-973h-86q-59 0 -97 39t-40 106q-100 -168 -287 -168q-217 0 -346 140.5t-129 369.5zM176 1255q0 57 40 97.5t95 40.5q57 0 97.5 -40t40.5 -98q0 -55 -40 -95t-98 -40q-55 0 -95 40t-40 95zM279 485 q0 -156 72.5 -238.5t197.5 -82.5q104 0 187 61.5t83 161.5v207q0 113 -81 166t-175 53q-137 0 -210.5 -82t-73.5 -246zM616 1255q0 57 40 97.5t96 40.5q57 0 97 -40t40 -98q0 -55 -40 -95t-97 -40q-55 0 -95.5 40t-40.5 95z" />
<glyph unicode="&#xe5;" horiz-adv-x="1169" d="M57 487q0 213 123 362.5t348 149.5q207 0 291 -159q18 133 144 133h79v-973h-86q-59 0 -97 39t-40 106q-100 -168 -287 -168q-217 0 -346 140.5t-129 369.5zM279 485q0 -156 72.5 -238.5t197.5 -82.5q104 0 187 61.5t83 161.5v207q0 113 -81 166t-175 53 q-137 0 -210.5 -82t-73.5 -246zM307 1253.5q0 94.5 65.5 160t160 65.5t160 -65.5t65.5 -160t-65.5 -160t-160 -65.5t-160 65.5t-65.5 160zM430 1253q0 -43 29.5 -72.5t72.5 -29.5t73 29.5t30 72.5t-30 73t-73 30t-72.5 -30t-29.5 -73z" />
<glyph unicode="&#xe6;" horiz-adv-x="1806" d="M57 487q0 213 123 362.5t348 149.5q207 0 291 -159q18 133 144 133h59v-43q104 70 264 69q106 0 191.5 -37.5t136.5 -95t84 -134.5t45 -146.5t12 -139.5v-43h-737q39 -250 295 -249q182 0 368 125q25 -45 25 -78q0 -61 -123 -142.5t-278 -81.5q-170 0 -283 72v-49h-59 q-61 0 -101.5 39t-42.5 106q-100 -168 -287 -168q-217 0 -346 140.5t-129 369.5zM279 485q0 -156 72.5 -238.5t197.5 -82.5q104 0 187 61.5t83 161.5v207q0 113 -81 166t-175 53q-137 0 -210.5 -82t-73.5 -246zM1018 571h526q-12 121 -86 185.5t-178 64.5 q-111 0 -181.5 -64.5t-80.5 -185.5z" />
<glyph unicode="&#xe7;" horiz-adv-x="1003" d="M57 485q0 227 130 369.5t370 142.5q229 0 377 -168q-41 -86 -131 -129q-88 113 -254 113q-123 0 -196.5 -85t-73.5 -243q0 -166 77.5 -243.5t200.5 -77.5q94 0 195 67q25 18 55 19q37 0 80 -31q47 -35 63 -51q-121 -156 -317 -184l-23 -101q123 -25 123 -162 q0 -92 -77.5 -135t-173 -40t-173.5 32l33 150q55 -27 119 -27q84 0 84 45q0 59 -99 82l33 154q-201 23 -311.5 156.5t-110.5 346.5z" />
<glyph unicode="&#xe8;" horiz-adv-x="1071" d="M57 475q0 236 125 379t363 143q106 0 191 -36.5t136.5 -95t84 -134.5t45 -145.5t12.5 -139.5v-43h-738q39 -250 295 -249q182 0 369 125q25 -45 25 -78q0 -61 -123 -142.5t-279 -81.5q-238 0 -372 136.5t-134 361.5zM260 1409l86 78q25 23 58.5 21.5t54.5 -25.5l227 -277 l-115 -102zM276 571h527q-12 121 -86 185.5t-178 64.5q-111 0 -181.5 -64.5t-81.5 -185.5z" />
<glyph unicode="&#xe9;" horiz-adv-x="1071" d="M57 475q0 236 125 379t363 143q106 0 191 -36.5t136.5 -95t84 -134.5t45 -145.5t12.5 -139.5v-43h-738q39 -250 295 -249q182 0 369 125q25 -45 25 -78q0 -61 -123 -142.5t-279 -81.5q-238 0 -372 136.5t-134 361.5zM276 571h527q-12 121 -86 185.5t-178 64.5 q-111 0 -181.5 -64.5t-81.5 -185.5zM389 1206l227 277q20 25 54.5 25.5t58.5 -21.5l86 -78l-311 -305z" />
<glyph unicode="&#xea;" horiz-adv-x="1071" d="M57 475q0 236 125 379t363 143q106 0 191 -36.5t136.5 -95t84 -134.5t45 -145.5t12.5 -139.5v-43h-738q39 -250 295 -249q182 0 369 125q25 -45 25 -78q0 -61 -123 -142.5t-279 -81.5q-238 0 -372 136.5t-134 361.5zM260 1196l229 291q23 27 60 22q33 0 51 -22l229 -291 l-114 -82l-170 197l-170 -197zM276 571h527q-12 121 -86 185.5t-178 64.5q-111 0 -181.5 -64.5t-81.5 -185.5z" />
<glyph unicode="&#xeb;" horiz-adv-x="1071" d="M57 475q0 236 125 379t363 143q106 0 191 -36.5t136.5 -95t84 -134.5t45 -145.5t12.5 -139.5v-43h-738q39 -250 295 -249q182 0 369 125q25 -45 25 -78q0 -61 -123 -142.5t-279 -81.5q-238 0 -372 136.5t-134 361.5zM188 1255q0 57 40 97.5t96 40.5q57 0 97 -40t40 -98 q0 -55 -40 -95t-97 -40q-55 0 -95.5 40t-40.5 95zM276 571h527q-12 121 -86 185.5t-178 64.5q-111 0 -181.5 -64.5t-81.5 -185.5zM629 1255q0 57 40 97.5t95 40.5q57 0 97 -40t40 -98q0 -55 -40 -95t-97 -40q-55 0 -95 40t-40 95z" />
<glyph unicode="&#xec;" horiz-adv-x="509" d="M-16 1409l86 78q25 23 58.5 21.5t53.5 -25.5l228 -277l-115 -102zM143 0v829q0 63 40 103.5t104 40.5h80v-973h-224z" />
<glyph unicode="&#xed;" horiz-adv-x="509" d="M113 1206l227 277q20 25 54 25.5t59 -21.5l86 -78l-312 -305zM143 0v829q0 63 40 103.5t104 40.5h80v-973h-224z" />
<glyph unicode="&#xee;" horiz-adv-x="509" d="M-16 1196l229 291q23 27 59 22q33 0 52 -22l229 -291l-115 -82l-170 197l-170 -197zM143 0v829q0 63 40 103.5t104 40.5h80v-973h-224z" />
<glyph unicode="&#xef;" horiz-adv-x="509" d="M-88 1255q0 57 40 97.5t95 40.5q57 0 97 -40t40 -98q0 -55 -40 -95t-97 -40q-55 0 -95 40t-40 95zM143 0v829q0 63 40 103.5t104 40.5h80v-973h-224zM352 1255q0 57 40 97.5t95 40.5q57 0 97.5 -40t40.5 -98q0 -55 -40 -95t-98 -40q-55 0 -95 40t-40 95z" />
<glyph unicode="&#xf0;" horiz-adv-x="1099" d="M57 467q0 213 129 351t363 138q66 0 137 -26q-66 129 -217 209l-82 -133l-59 36q-27 16 -33 55.5t14 71.5l17 25q-18 6 -56 14q-86 18 -71 197q0 14 2 22l28 -2q102 -6 215 -34l68 110l51 -35q35 -25 42 -61.5t-13 -71.5q81 -40 149 -106q156 -154 232 -359.5t67 -412.5 q-8 -209 -135 -343.5t-356 -134.5q-227 0 -359.5 135.5t-132.5 354.5zM279 467q0 -152 76.5 -227.5t193.5 -75.5q121 0 196.5 80t75.5 223q0 141 -75.5 223t-196.5 82t-195.5 -82t-74.5 -223z" />
<glyph unicode="&#xf1;" horiz-adv-x="1179" d="M133 0v973h96q84 0 127 -62q121 88 258 88q217 0 325 -108.5t108 -294.5v-596h-224v598q0 98 -56 156.5t-153 58.5q-172 0 -258 -108v-705h-223zM254 1174q39 84 96.5 138t126.5 54q59 0 140 -37t120 -37q76 0 121 72l119 -59q-39 -84 -96.5 -138.5t-126.5 -54.5 q-59 0 -140.5 37t-119.5 37q-76 0 -121 -72z" />
<glyph unicode="&#xf2;" horiz-adv-x="1097" d="M57 487q0 225 129 367.5t363 142.5q231 0 361 -140.5t130 -369.5q0 -225 -129 -367.5t-362 -142.5q-229 0 -360.5 138.5t-131.5 371.5zM264 1409l86 78q25 23 58.5 21.5t54.5 -25.5l227 -277l-115 -102zM279 487q0 -166 75.5 -244.5t194.5 -78.5q121 0 196.5 82.5 t75.5 240.5q0 156 -74.5 241t-197.5 85t-196.5 -85t-73.5 -241z" />
<glyph unicode="&#xf3;" horiz-adv-x="1097" d="M57 487q0 225 129 367.5t363 142.5q231 0 361 -140.5t130 -369.5q0 -225 -129 -367.5t-362 -142.5q-229 0 -360.5 138.5t-131.5 371.5zM279 487q0 -166 75.5 -244.5t194.5 -78.5q121 0 196.5 82.5t75.5 240.5q0 156 -74.5 241t-197.5 85t-196.5 -85t-73.5 -241zM393 1206 l228 277q20 25 54 25.5t58 -21.5l86 -78l-311 -305z" />
<glyph unicode="&#xf4;" horiz-adv-x="1097" d="M57 487q0 225 129 367.5t363 142.5q231 0 361 -140.5t130 -369.5q0 -225 -129 -367.5t-362 -142.5q-229 0 -360.5 138.5t-131.5 371.5zM264 1196l230 291q23 27 59 22q33 0 51 -22l230 -291l-115 -82l-170 197l-170 -197zM279 487q0 -166 75.5 -244.5t194.5 -78.5 q121 0 196.5 82.5t75.5 240.5q0 156 -74.5 241t-197.5 85t-196.5 -85t-73.5 -241z" />
<glyph unicode="&#xf5;" horiz-adv-x="1097" d="M57 487q0 225 129 367.5t363 142.5q231 0 361 -140.5t130 -369.5q0 -225 -129 -367.5t-362 -142.5q-229 0 -360.5 138.5t-131.5 371.5zM188 1174q39 84 96.5 138t127.5 54q59 0 140 -37t120 -37q76 0 121 72l118 -59q-39 -84 -96 -138.5t-127 -54.5q-59 0 -140 37 t-120 37q-76 0 -121 -72zM279 487q0 -166 75.5 -244.5t194.5 -78.5q121 0 196.5 82.5t75.5 240.5q0 156 -74.5 241t-197.5 85t-196.5 -85t-73.5 -241z" />
<glyph unicode="&#xf6;" horiz-adv-x="1097" d="M57 487q0 225 129 367.5t363 142.5q231 0 361 -140.5t130 -369.5q0 -225 -129 -367.5t-362 -142.5q-229 0 -360.5 138.5t-131.5 371.5zM193 1255q0 57 39.5 97.5t95.5 40.5q57 0 97 -40t40 -98q0 -55 -40 -95t-97 -40q-55 0 -95 40t-40 95zM279 487q0 -166 75.5 -244.5 t194.5 -78.5q121 0 196.5 82.5t75.5 240.5q0 156 -74.5 241t-197.5 85t-196.5 -85t-73.5 -241zM633 1255q0 57 40 97.5t95 40.5q57 0 97 -40t40 -98q0 -55 -40 -95t-97 -40q-55 0 -95 40t-40 95z" />
<glyph unicode="&#xf7;" horiz-adv-x="911" d="M0 360v93q0 45 27.5 72.5t68.5 27.5h815v-98q0 -41 -28.5 -68t-69.5 -27h-813zM330 0v137q0 49 36.5 82t90.5 33h125v-252h-252zM330 670v137q0 49 36.5 82t90.5 33h125v-252h-252z" />
<glyph unicode="&#xf8;" horiz-adv-x="1097" d="M55 0l115 137q-113 131 -113 350q0 227 129 369.5t363 142.5q164 0 280 -75l41 49h168l-112 -133q115 -139 114 -353q0 -225 -129 -367.5t-362 -142.5q-166 0 -281 72l-41 -49h-172zM279 487q0 -104 32 -180l387 461q-63 45 -149 45q-123 0 -196.5 -85t-73.5 -241z M397 205q61 -41 152 -41q121 0 196.5 82.5t75.5 240.5q0 100 -37 181z" />
<glyph unicode="&#xf9;" horiz-adv-x="1167" d="M127 381v432q0 70 44 115t112 45h67v-594q0 -98 56.5 -156.5t152.5 -58.5q170 0 258 110v539q0 70 44 115t112 45h67v-973h-96q-86 0 -127 61q-115 -84 -258 -84q-217 0 -324.5 108t-107.5 296zM307 1409l86 78q25 23 58.5 21.5t54.5 -25.5l227 -277l-115 -102z" />
<glyph unicode="&#xfa;" horiz-adv-x="1167" d="M127 381v432q0 70 44 115t112 45h67v-594q0 -98 56.5 -156.5t152.5 -58.5q170 0 258 110v539q0 70 44 115t112 45h67v-973h-96q-86 0 -127 61q-115 -84 -258 -84q-217 0 -324.5 108t-107.5 296zM436 1206l228 277q20 25 54 25.5t58 -21.5l86 -78l-311 -305z" />
<glyph unicode="&#xfb;" horiz-adv-x="1167" d="M127 381v432q0 70 44 115t112 45h67v-594q0 -98 56.5 -156.5t152.5 -58.5q170 0 258 110v539q0 70 44 115t112 45h67v-973h-96q-86 0 -127 61q-115 -84 -258 -84q-217 0 -324.5 108t-107.5 296zM307 1196l230 291q23 27 59 22q33 0 51 -22l230 -291l-115 -82l-170 197 l-170 -197z" />
<glyph unicode="&#xfc;" horiz-adv-x="1167" d="M127 381v432q0 70 44 115t112 45h67v-594q0 -98 56.5 -156.5t152.5 -58.5q170 0 258 110v539q0 70 44 115t112 45h67v-973h-96q-86 0 -127 61q-115 -84 -258 -84q-217 0 -324.5 108t-107.5 296zM236 1255q0 57 39.5 97.5t95.5 40.5q57 0 97 -40t40 -98q0 -55 -40 -95 t-97 -40q-55 0 -95 40t-40 95zM676 1255q0 57 40 97.5t95 40.5q57 0 97 -40t40 -98q0 -55 -40 -95t-97 -40q-55 0 -95 40t-40 95z" />
<glyph unicode="&#xfd;" horiz-adv-x="1067" d="M10 973h131q49 0 90 -23.5t56 -58.5l243 -590l250 590q16 35 56.5 58.5t89.5 23.5h131l-611 -1399q-16 -35 -55 -57.5t-86 -22.5h-133l238 541zM391 1206l227 277q20 25 54.5 25.5t58.5 -21.5l86 -78l-311 -305z" />
<glyph unicode="&#xfe;" horiz-adv-x="1171" d="M133 -506v1841q0 63 40 103.5t103 40.5h80v-588q47 51 128 79.5t159 28.5q217 0 345 -140t128 -372q0 -211 -123 -360.5t-346 -149.5q-209 0 -291 156v-495q0 -63 -40 -103.5t-103 -40.5h-80zM356 379q0 -113 80 -164t176 -51q137 0 211 82t74 243q0 158 -72.5 241 t-197.5 83q-102 0 -186.5 -62.5t-84.5 -164.5v-207z" />
<glyph unicode="&#xff;" horiz-adv-x="983" d="M0 973h131q49 0 90 -23.5t55 -58.5l244 -590l250 590q16 35 56 58.5t89 23.5h132l-611 -1399q-16 -35 -55 -57.5t-86 -22.5h-133l237 541zM168 1257q0 57 40 97.5t95 40.5q57 0 97 -40t40 -98q0 -55 -40 -95t-97 -40q-55 0 -95 40t-40 95zM608 1257q0 57 40 97.5t95 40.5 q57 0 97.5 -40t40.5 -98q0 -55 -40 -95t-98 -40q-55 0 -95 40t-40 95z" />
<glyph unicode="&#x152;" horiz-adv-x="1888" d="M68 680q0 307 193.5 494.5t498.5 187.5h1026v-45q0 -72 -58.5 -122t-150.5 -50h-393v-330h489v-47q0 -72 -58.5 -122t-150.5 -50h-282v-379h446q92 0 150.5 -50t58.5 -122v-45h-1085q-301 0 -492.5 187.5t-191.5 492.5zM328 682q0 -211 112.5 -338t313.5 -127h184v928 h-178q-203 0 -317.5 -126t-114.5 -337z" />
<glyph unicode="&#x153;" horiz-adv-x="1824" d="M57 487q0 227 129 369.5t363 142.5q252 0 375 -172q123 172 374 172q106 0 191.5 -37.5t136.5 -95t84 -134.5t45 -146.5t12 -139.5v-43h-737q39 -250 295 -249q182 0 369 125q25 -45 24 -78q0 -61 -122.5 -142.5t-278.5 -81.5q-264 0 -391 173q-125 -172 -377 -173 q-229 0 -360.5 138.5t-131.5 371.5zM279 487q0 -166 75.5 -244.5t194.5 -78.5q121 0 196.5 82.5t75.5 240.5q0 156 -74.5 241t-197.5 85t-196.5 -85t-73.5 -241zM1030 571h526q-12 121 -85.5 185.5t-178.5 64.5q-111 0 -181.5 -64.5t-80.5 -185.5z" />
<glyph unicode="&#x178;" horiz-adv-x="1204" d="M10 1362h187q88 0 133 -72l317 -514h4l318 516q43 70 135 70h186l-514 -813v-549h-252v549zM293 1647q0 57 40 97t95 40q57 0 97 -40t40 -97q0 -55 -40 -95.5t-97 -40.5q-55 0 -95 40.5t-40 95.5zM733 1647q0 57 40 97t95 40q57 0 97.5 -40t40.5 -97q0 -55 -40 -95.5 t-98 -40.5q-55 0 -95 40.5t-40 95.5z" />
<glyph unicode="&#x2c6;" horiz-adv-x="569" d="M0 1196l229 291q23 27 60 22q33 0 51 -22l229 -291l-114 -82l-170 197l-170 -197z" />
<glyph unicode="&#x2dc;" horiz-adv-x="722" d="M0 1174q39 84 96.5 138t126.5 54q59 0 140 -37t120 -37q76 0 121 72l119 -59q-39 -84 -96.5 -138.5t-126.5 -54.5q-59 0 -140 37t-120 37q-76 0 -121 -72z" />
<glyph unicode="&#x2000;" horiz-adv-x="921" />
<glyph unicode="&#x2001;" horiz-adv-x="1843" />
<glyph unicode="&#x2002;" horiz-adv-x="921" />
<glyph unicode="&#x2003;" horiz-adv-x="1843" />
<glyph unicode="&#x2004;" horiz-adv-x="614" />
<glyph unicode="&#x2005;" horiz-adv-x="460" />
<glyph unicode="&#x2006;" horiz-adv-x="307" />
<glyph unicode="&#x2007;" horiz-adv-x="307" />
<glyph unicode="&#x2008;" horiz-adv-x="230" />
<glyph unicode="&#x2009;" horiz-adv-x="368" />
<glyph unicode="&#x200a;" horiz-adv-x="102" />
<glyph unicode="&#x2010;" horiz-adv-x="724" d="M29 483v92q0 45 27.5 73t68.5 28h571v-98q0 -41 -28.5 -68t-69.5 -27h-569z" />
<glyph unicode="&#x2011;" horiz-adv-x="724" d="M29 483v92q0 45 27.5 73t68.5 28h571v-98q0 -41 -28.5 -68t-69.5 -27h-569z" />
<glyph unicode="&#x2012;" horiz-adv-x="724" d="M29 483v92q0 45 27.5 73t68.5 28h571v-98q0 -41 -28.5 -68t-69.5 -27h-569z" />
<glyph unicode="&#x2013;" horiz-adv-x="911" d="M0 483v92q0 45 27.5 73t68.5 28h815v-98q0 -41 -28.5 -68t-69.5 -27h-813z" />
<glyph unicode="&#x2014;" horiz-adv-x="1394" d="M0 483v92q0 45 27.5 73t68.5 28h1299v-98q0 -41 -29 -68t-70 -27h-1296z" />
<glyph unicode="&#x2018;" horiz-adv-x="440" d="M113 915v215q0 74 35.5 135.5t84.5 96.5h91q-78 -141 -78 -232h82v-116q0 -41 -32 -70t-77 -29h-106z" />
<glyph unicode="&#x2019;" horiz-adv-x="440" d="M113 1174v116q0 41 31.5 70t76.5 29h107v-215q0 -74 -36 -135.5t-85 -96.5h-90q78 141 78 232h-82z" />
<glyph unicode="&#x201a;" horiz-adv-x="440" d="M113 0v117q0 41 31.5 69.5t76.5 28.5h107v-215q0 -74 -36 -135.5t-85 -95.5h-90q78 141 78 231h-82z" />
<glyph unicode="&#x201c;" horiz-adv-x="737" d="M113 915v215q0 74 35.5 135.5t84.5 96.5h91q-78 -141 -78 -232h82v-116q0 -41 -32 -70t-77 -29h-106zM410 915v215q0 74 35.5 135.5t84.5 96.5h91q-78 -141 -78 -232h82v-116q0 -41 -32 -70t-77 -29h-106z" />
<glyph unicode="&#x201d;" horiz-adv-x="737" d="M113 1174v116q0 41 31.5 70t76.5 29h107v-215q0 -74 -36 -135.5t-85 -96.5h-90q78 141 78 232h-82zM410 1174v116q0 41 31.5 70t76.5 29h107v-215q0 -74 -36 -135.5t-85 -96.5h-90q78 141 78 232h-82z" />
<glyph unicode="&#x201e;" horiz-adv-x="737" d="M113 0v117q0 41 31.5 69.5t76.5 28.5h107v-215q0 -74 -36 -135.5t-85 -95.5h-90q78 141 78 231h-82zM410 0v117q0 41 31.5 69.5t76.5 28.5h107v-215q0 -74 -36 -135.5t-85 -95.5h-90q78 141 78 231h-82z" />
<glyph unicode="&#x2022;" horiz-adv-x="739" d="M72 391q0 125 87 212t210 87q125 0 212 -87t87 -212q0 -123 -87 -210t-212 -87q-123 0 -210 87t-87 210z" />
<glyph unicode="&#x2026;" horiz-adv-x="1304" d="M102 0v137q0 49 37 82t90 33h125v-252h-252zM526 0v137q0 49 37 82t90 33h125v-252h-252zM950 0v137q0 49 37 82t90 33h125v-252h-252z" />
<glyph unicode="&#x202f;" horiz-adv-x="368" />
<glyph unicode="&#x2039;" horiz-adv-x="561" d="M74 506q0 33 22 51l291 270l102 -114l-217 -211l217 -211l-102 -115l-291 270q-27 23 -22 60z" />
<glyph unicode="&#x203a;" horiz-adv-x="561" d="M72 291l217 211l-217 211l102 114l291 -270q23 -18 22 -51q4 -37 -22 -60l-291 -270z" />
<glyph unicode="&#x205f;" horiz-adv-x="460" />
<glyph unicode="&#x20ac;" horiz-adv-x="1144" d="M29 444v80q0 37 23.5 59.5t58.5 22.5h16v131h-98v80q0 39 23.5 62.5t58.5 23.5h22q23 225 155 355.5t390 130.5q121 0 232.5 -54.5t193.5 -148.5q-47 -92 -154 -152q-109 133 -276 133q-127 0 -199 -60t-92 -204h455v-84q0 -37 -23.5 -59.5t-60.5 -22.5h-379v-131h346 v-82q0 -35 -23.5 -57.5t-58.5 -22.5h-252q23 -135 94.5 -192t192.5 -57q123 0 203 73q23 20 67 21q41 0 88 -35q55 -41 74 -59q-78 -100 -196.5 -159t-237.5 -59q-256 0 -390.5 127t-152.5 340h-100z" />
<glyph unicode="&#x2122;" horiz-adv-x="1482" d="M41 1245v25q0 41 29.5 68.5t74.5 27.5h480v-25q0 -41 -30 -68.5t-75 -27.5h-119v-643h-139v643h-221zM698 602v764h113q76 0 102 -76l93 -286q20 -59 51 -185h2q25 104 51 182l94 289q8 33 37 54.5t64 21.5h106v-764h-131v387q0 84 6 199h-4q-10 -41 -47 -154l-131 -409 q-10 -23 -29 -23h-43q-16 0 -22 23l-138 409q-27 80 -43 154h-6q8 -96 8 -197v-389h-133z" />
<glyph unicode="&#x25fc;" horiz-adv-x="972" d="M0 0v973h973v-973h-973z" />
</font>
</defs>
</svg>
