<svg width="10" height="8" viewBox="0 0 10 8" fill="none" xmlns="http://www.w3.org/2000/svg">
<path d="M4.81694 0.167368C4.57286 -0.0557892 4.17714 -0.0557892 3.93306 0.167368L0.183059 3.59594C0.0658484 3.7031 0 3.84845 0 4C0 4.15155 0.0658484 4.2969 0.183059 4.40406L3.93306 7.83263C4.17714 8.05579 4.57286 8.05579 4.81694 7.83263C5.06102 7.60948 5.06102 7.24767 4.81694 7.02451L2.13388 4.57143L9.375 4.57143C9.72018 4.57143 10 4.31559 10 4C10 3.68441 9.72018 3.42857 9.375 3.42857L2.13388 3.42857L4.81694 0.97549C5.06102 0.752333 5.06102 0.390524 4.81694 0.167368Z" fill="white"/>
</svg>
