<svg width="123" height="45" viewBox="0 0 123 45" fill="none" xmlns="http://www.w3.org/2000/svg">
<g clip-path="url(#clip0_30064_82886)">
<g clip-path="url(#clip1_30064_82886)">
<path d="M52.1256 20.003C52.9619 20.003 53.5194 20.5108 53.5194 21.1879V21.47H47.331V12.1603H53.1849V12.4424C53.1849 13.063 52.6273 13.6272 51.7911 13.6272H49.0035V15.8841H52.4601V16.2227C52.4601 16.8433 51.9026 17.4076 51.0663 17.4076H49.0035V20.003H52.1256ZM60.4325 13.5144C60.4325 12.8373 60.8228 12.1603 61.7148 12.1603H62.1608V17.6332C62.1608 19.7773 61.3245 21.6392 58.2582 21.6392C55.5822 21.6392 54.4114 20.2287 54.4114 17.6332V13.5144C54.4114 12.8373 54.8016 12.1603 55.6937 12.1603H56.1397V17.4076C56.1397 19.3823 56.9202 20.1158 58.314 20.1158C59.5962 20.1158 60.4883 19.4952 60.4883 17.4076V13.5144H60.4325ZM70.3562 21.47C69.5757 18.4796 67.6802 17.6332 66.5094 17.6332C66.2306 17.6332 66.0076 17.6897 65.8961 17.7461C65.8961 17.6897 65.8961 17.6332 65.8961 17.5768C65.8961 16.7869 66.9554 16.5048 67.5687 16.392C68.5722 16.2227 69.6315 15.7149 69.6315 14.6993C69.6315 13.9658 69.074 13.5708 68.4607 13.5708H65.6731V21.4136H63.9448V12.1603H68.3492C69.7987 12.1603 71.304 13.063 71.304 14.7557C71.304 15.9406 70.4677 16.7869 69.52 17.2947C70.7465 18.1411 71.6385 19.6645 72.0845 21.47H70.3562ZM77.1579 21.6392C74.2031 21.6392 72.5305 19.6645 72.5305 16.7869C72.5305 13.9094 74.2588 11.9346 77.1579 11.9346C80.0569 11.9346 81.7295 13.9658 81.7295 16.7869C81.7295 19.7209 80.0012 21.6392 77.1579 21.6392ZM77.1579 13.458C75.5411 13.458 74.3146 14.53 74.3146 16.7869C74.3146 19.1002 75.5411 20.1158 77.1579 20.1158C78.7189 20.1158 80.0012 19.1567 80.0012 16.7869C79.9454 14.53 78.7189 13.458 77.1579 13.458ZM84.7958 21.47H83.0675V12.1603H87.5276C89.3116 12.1603 90.3152 13.1194 90.3152 14.8685C90.3152 16.5612 88.9214 17.9718 86.6356 17.9718C85.2418 17.9718 85.1303 17.1819 85.1303 16.8433C85.1303 16.7869 85.1303 16.6741 85.1303 16.6741C85.1303 16.6741 85.4648 16.8433 86.0223 16.8433C87.5834 16.8433 88.5869 15.997 88.5869 14.8121C88.5869 14.135 88.0851 13.5708 87.1373 13.5708H84.7958V21.47ZM96.2248 20.003C97.0611 20.003 97.6186 20.5108 97.6186 21.1879V21.47H91.4302V12.1603H97.2841V12.4424C97.2841 13.063 96.7266 13.6272 95.8903 13.6272H93.1027V15.8841H96.5593V16.2227C96.5593 16.8433 96.0018 17.4076 95.1655 17.4076H93.1027V20.003H96.2248ZM106.037 21.47L105.033 18.5924C104.42 18.1411 103.64 17.8025 102.859 17.8025C102.302 17.8025 101.911 17.9718 101.8 18.1411C101.8 18.0846 101.744 18.0282 101.744 17.9154C101.744 17.1819 102.413 16.7305 103.584 16.7305C103.807 16.7305 104.141 16.7869 104.364 16.8433L103.417 14.1915C103.361 14.0786 103.249 13.9658 103.082 13.9658C102.859 13.9658 102.748 14.0786 102.692 14.1915L100.127 21.47H98.3433L101.465 13.3451C101.8 12.4988 102.079 12.1603 102.636 12.1603H103.472C103.974 12.1603 104.309 12.4988 104.643 13.3451L107.765 21.47H106.037ZM116.908 12.1603V21.47H115.738C115.459 21.47 115.069 21.3571 114.734 20.9058L112.114 17.1254C111.612 16.392 111.055 15.5456 110.497 14.53C110.497 14.53 110.553 16.5612 110.553 17.1819V21.4136H108.825V12.1603H109.995C110.386 12.1603 110.776 12.3295 110.943 12.6681L113.619 16.5048C114.288 17.464 114.846 18.3103 115.292 19.0438C115.292 18.0846 115.236 17.1254 115.236 16.2227V12.2167H116.908V12.1603ZM54.0769 33.1494L53.0734 30.2719C52.4601 29.8205 51.6796 29.482 50.8991 29.482C50.3415 29.482 49.9513 29.6513 49.8398 29.8205C49.8398 29.7641 49.8398 29.7077 49.8398 29.5948C49.8398 28.8613 50.5088 28.41 51.6796 28.41C51.9026 28.41 52.2371 28.4664 52.4601 28.5228L51.5123 25.8709C51.4566 25.7581 51.3451 25.6452 51.1778 25.6452C50.9548 25.6452 50.8433 25.7581 50.7876 25.8709L48.223 33.1494H46.439L49.561 25.0246C49.8955 24.1783 50.1743 23.8397 50.7318 23.8397H51.5681C52.0698 23.8397 52.4043 24.1783 52.7388 25.0246L55.8609 33.1494H54.0769ZM62.9971 23.8397V24.1218C62.9971 24.7425 62.4396 25.3067 61.6033 25.3067H59.9308V33.1494H58.2582V25.3067H55.1362V25.0246C55.1362 24.3475 55.6937 23.8397 56.5299 23.8397H62.9971ZM64.2236 25.1939C64.2236 24.5168 64.6139 23.8397 65.4501 23.8397H65.8961V27.5636H70.189V25.1939C70.189 24.5168 70.5792 23.8397 71.4155 23.8397H71.8615V33.1494H70.189V29.1434H65.8961V33.1494H64.1678V25.1939H64.2236ZM78.6074 31.6825C79.4437 31.6825 80.0012 32.1903 80.0012 32.8673V33.1494H74.0358V25.1939C74.0358 24.5168 74.4261 23.8397 75.2623 23.8397H75.7083V31.6825H78.6074ZM86.1338 31.6825C86.9701 31.6825 87.5276 32.1903 87.5276 32.8673V33.1494H81.3392V23.8397H87.1931V24.1218C87.1931 24.7425 86.6356 25.3067 85.7993 25.3067H83.0118V27.5636H86.4683V27.9022C86.4683 28.5228 85.9108 29.087 85.0745 29.087H83.0118V31.6825H86.1338ZM96.2248 23.8397V24.1218C96.2248 24.7425 95.6673 25.3067 94.831 25.3067H93.1585V33.1494H91.4859V25.3067H88.4196V25.0246C88.4196 24.3475 88.9771 23.8397 89.8134 23.8397H96.2248ZM97.4513 25.1939C97.4513 24.5168 97.8416 23.8397 98.6778 23.8397H99.1239V33.1494H97.3956V25.1939H97.4513ZM109.048 25.2503C108.825 25.6452 108.49 25.9274 108.044 26.2095C107.487 25.476 106.539 25.081 105.535 25.081C103.64 25.081 102.58 26.3223 102.58 28.4664C102.58 30.6104 103.64 31.7953 105.535 31.7953C106.316 31.7953 106.929 31.5132 107.487 31.0618C107.654 30.949 107.821 30.8925 108.044 30.8925C108.434 30.8925 108.88 31.1747 109.271 31.5132C108.434 32.6416 107.096 33.3187 105.591 33.3187C102.748 33.3187 100.852 31.5132 100.852 28.5228C100.852 25.5324 102.692 23.6705 105.591 23.6705C106.929 23.614 108.156 24.1783 109.048 25.2503ZM115.57 25.6452C115.459 25.6452 115.292 25.6452 115.18 25.5324C114.623 25.1939 114.232 25.081 113.508 25.081C112.56 25.081 112.114 25.5888 112.114 26.2095C112.114 26.943 112.671 27.3379 113.731 27.62C114.4 27.7893 115.069 27.9586 115.626 28.2971C116.462 28.7485 116.964 29.6513 116.964 30.6104C116.964 32.1338 115.57 33.2623 113.786 33.2623C112.616 33.2623 111.166 32.6981 110.218 32.0774L110.274 31.9646C110.664 31.3439 111.055 31.2311 111.445 31.2311C111.501 31.2311 111.668 31.2875 111.724 31.2875C112.393 31.626 113.173 31.8517 113.842 31.8517C114.678 31.8517 115.236 31.1747 115.236 30.6104C115.236 29.9898 114.79 29.6513 114.232 29.4256C113.731 29.2563 113.117 29.087 112.616 28.9178C111.389 28.4664 110.386 27.62 110.386 26.2095C110.386 24.5732 111.612 23.614 113.508 23.614C114.734 23.614 115.905 24.1218 116.908 24.7989C116.741 25.0246 116.239 25.6452 115.57 25.6452Z" fill="#0099D8"/>
<path d="M48.6691 39.2994L48.446 40.8228H47.777L48 39.2994L46.885 37.0425H47.3868C47.554 37.0425 47.6655 37.099 47.7213 37.2682L48.3903 38.6788L49.4496 37.2682C49.5611 37.1554 49.6726 37.099 49.8398 37.099H50.3416L48.6691 39.2994ZM51.6239 40.8793C50.5646 40.8793 49.9513 40.2586 49.9513 39.2994C49.9513 37.9453 50.7876 36.9861 52.0699 36.9861C53.1291 36.9861 53.7424 37.6632 53.7424 38.5659C53.7424 38.6788 53.7424 38.7916 53.6867 38.9609C53.5194 40.0893 52.7946 40.8793 51.6239 40.8793ZM52.9619 38.6224C52.9619 37.8889 52.5716 37.5503 52.0141 37.5503C51.2894 37.5503 50.6761 38.0581 50.6761 39.243C50.6761 39.9765 51.0664 40.2586 51.6796 40.2586C52.2929 40.2586 52.8504 39.8637 53.0176 38.9045C52.9619 38.7916 52.9619 38.7352 52.9619 38.6224ZM56.6972 37.6068C56.753 37.3246 56.9202 37.0425 57.3105 37.0425H57.4777L57.1432 39.243C57.0317 40.0893 56.6415 40.8793 55.4149 40.8793C54.4672 40.8793 53.9654 40.4279 53.9654 39.638C53.9654 39.5251 53.9654 39.3559 54.0212 39.243L54.2442 37.6068C54.2999 37.3246 54.4672 37.0425 54.8574 37.0425H55.0247L54.7459 39.1866C54.7459 39.2994 54.7459 39.4123 54.7459 39.5251C54.7459 40.0893 55.0247 40.315 55.5264 40.315C56.0282 40.315 56.4185 40.0329 56.53 39.1866L56.6972 37.6068ZM58.091 37.0425H59.8193C60.3768 37.0425 60.9343 37.3811 60.9343 37.9453C60.9343 38.5659 60.4883 38.9045 60.0423 39.1302C60.4883 39.4687 60.7671 40.0893 60.8228 40.8228H60.1538C59.9865 39.638 59.2618 39.2994 58.8158 39.2994C58.7043 39.2994 58.5928 39.2994 58.537 39.3559C58.537 39.0173 58.8715 38.9045 59.3175 38.8481C59.7635 38.7916 60.2653 38.5095 60.2653 38.1146C60.2653 37.8889 60.098 37.7196 59.8193 37.7196H58.7043C58.2583 40.8793 58.2583 40.8793 58.2583 40.8793H57.5892L58.091 37.0425ZM65.1157 37.776C65.0599 37.776 65.0041 37.776 64.9484 37.7196C64.7254 37.6068 64.5581 37.5503 64.2794 37.5503C63.8891 37.5503 63.6661 37.776 63.6661 38.0017C63.6104 38.2838 63.8334 38.4531 64.2236 38.5659C64.5024 38.6224 64.7254 38.6788 64.9484 38.8481C65.2272 39.0173 65.3944 39.4123 65.3387 39.7508C65.2272 40.3715 64.6696 40.8228 63.9449 40.8228C63.4989 40.8228 62.8298 40.5971 62.4953 40.315L62.5511 40.2586C62.7184 39.9765 62.9414 39.9765 63.0529 39.9765C63.1086 39.9765 63.1644 39.9765 63.1644 40.0329C63.4431 40.2022 63.7219 40.2586 64.0006 40.2586C64.3351 40.2586 64.6139 39.9765 64.6139 39.7508C64.6696 39.4687 64.5024 39.3558 64.2794 39.2994C64.0564 39.243 63.8334 39.1866 63.6661 39.0737C63.2201 38.9045 62.8299 38.5659 62.9414 38.0017C63.0529 37.3246 63.5546 36.9297 64.2794 36.9297C64.7811 36.9297 65.2829 37.1554 65.6732 37.4375C65.6174 37.5503 65.3944 37.776 65.1157 37.776ZM66.3979 40.8228H65.7289L66.2307 37.0425H67.959C68.628 37.0425 69.0182 37.3246 69.0182 37.8889C69.0182 38.6788 68.4607 39.3559 67.4014 39.3559C66.8997 39.3559 66.7882 39.1302 66.7882 38.9609C66.7882 38.9045 66.7882 38.8481 66.7882 38.8481C66.7882 38.8481 66.8997 38.9045 67.1227 38.9045C67.736 38.9045 68.2935 38.5095 68.2935 38.0581C68.2935 37.8324 68.1262 37.6068 67.7917 37.6068H66.8439L66.3979 40.8228ZM70.6908 40.8793C69.6315 40.8793 69.0182 40.2586 69.0182 39.2994C69.0182 37.9453 69.8545 36.9861 71.1368 36.9861C72.196 36.9861 72.8093 37.6632 72.8093 38.5659C72.8093 38.6788 72.8093 38.7916 72.7536 38.9609C72.6421 40.0893 71.8615 40.8793 70.6908 40.8793ZM72.0845 38.6224C72.0845 37.8889 71.6943 37.5503 71.1368 37.5503C70.412 37.5503 69.7987 38.0581 69.7987 39.243C69.7987 39.9765 70.189 40.2586 70.8023 40.2586C71.4155 40.2586 71.973 39.8637 72.1403 38.9045C72.0845 38.7916 72.0845 38.7352 72.0845 38.6224ZM73.4783 37.0425H75.2066C75.7641 37.0425 76.3216 37.3811 76.3216 37.9453C76.3216 38.5659 75.8756 38.9045 75.4296 39.1302C75.8756 39.4687 76.1544 40.0893 76.2101 40.8228H75.5411C75.3739 39.638 74.6491 39.2994 74.2031 39.2994C74.0916 39.2994 73.9801 39.2994 73.9243 39.3559C73.9243 39.0173 74.2588 38.9045 74.7049 38.8481C75.1509 38.7916 75.6526 38.5095 75.6526 38.1146C75.6526 37.8889 75.4854 37.7196 75.2066 37.7196H74.0916C73.6456 40.8793 73.6456 40.8793 73.6456 40.8793H72.9766L73.4783 37.0425ZM79.8897 37.0425V37.1554C79.834 37.4375 79.611 37.6068 79.2765 37.6068H78.5517L78.1057 40.7664H77.4367L77.8827 37.6068H76.6561V37.4939C76.7119 37.2118 76.9349 36.9861 77.2694 36.9861H79.8897V37.0425ZM82.1755 39.1866L81.9525 40.8228H81.2835L81.7853 37.0425H84.1826V37.1554C84.1268 37.4375 83.9038 37.6068 83.5693 37.6068H82.4543L82.3428 38.5659H83.7923V38.6788C83.7365 38.9609 83.5135 39.1302 83.179 39.1302H82.1755V39.1866ZM85.6321 40.8793C84.5728 40.8793 83.9595 40.2586 83.9595 39.2994C83.9595 37.9453 84.7958 36.9861 86.0781 36.9861C87.1374 36.9861 87.7506 37.6632 87.7506 38.5659C87.7506 38.6788 87.7506 38.7916 87.6949 38.9609C87.5276 40.0893 86.8029 40.8793 85.6321 40.8793ZM87.0259 38.6224C87.0259 37.8889 86.6356 37.5503 86.0781 37.5503C85.3533 37.5503 84.7401 38.0581 84.7401 39.243C84.7401 39.9765 85.1303 40.2586 85.7436 40.2586C86.3568 40.2586 86.9144 39.8637 87.0816 38.9045C87.0259 38.7916 87.0259 38.7352 87.0259 38.6224ZM88.4196 37.0425H90.1479C90.7054 37.0425 91.263 37.3811 91.263 37.9453C91.263 38.5659 90.8169 38.9045 90.3709 39.1302C90.8169 39.4687 91.0957 40.0893 91.1515 40.8228H90.4824C90.3152 39.638 89.5904 39.2994 89.1444 39.2994C89.0329 39.2994 88.9214 39.2994 88.8657 39.3559C88.8657 39.0173 89.2002 38.9045 89.6462 38.8481C90.0922 38.7916 90.5939 38.5095 90.5939 38.1146C90.5939 37.8889 90.4267 37.7196 90.1479 37.7196H89.0329C88.5869 40.8793 88.5869 40.8793 88.5869 40.8793H87.9179L88.4196 37.0425ZM95.054 40.2022C95.3885 40.2022 95.6115 40.4279 95.5558 40.6536V40.7664H93.1585L93.6045 37.5503C93.6603 37.2682 93.8275 36.9861 94.162 36.9861H94.3293L93.8833 40.1458H95.054V40.2022ZM96.2806 37.6068C96.3363 37.3246 96.5036 37.0425 96.8381 37.0425H97.0053L96.5036 40.8228H95.8346L96.2806 37.6068ZM98.1204 39.1866L97.8973 40.8228H97.2283L97.7301 37.0425H100.127V37.1554C100.072 37.4375 99.8486 37.6068 99.5141 37.6068H98.3991L98.2876 38.5659H99.7371V38.6788C99.6814 38.9609 99.4584 39.1302 99.1239 39.1302H98.1204V39.1866ZM101.911 40.2022C102.246 40.2022 102.469 40.4279 102.413 40.6536V40.7664H99.9044L100.406 36.9861H102.748V37.099C102.692 37.3811 102.469 37.5503 102.134 37.5503H101.019L100.908 38.4531H102.302V38.5659C102.246 38.8481 102.023 39.0173 101.688 39.0173H100.908L100.741 40.0893H101.911V40.2022Z" fill="#F15A22"/>
<path d="M12.7653 14.8681C7.07864 12.9498 0.5 13.119 0.5 13.119V13.5704C6.24237 13.909 10.5352 16.448 10.5352 16.448C11.706 15.5452 12.7653 14.8681 12.7653 14.8681Z" fill="#FCAF17"/>
<path d="M32.8358 11.8215C34.4525 11.6522 36.0136 11.6522 37.9091 12.2728C37.9091 12.2728 36.6826 10.8058 34.6198 10.4109C33.5048 10.1852 32.4455 10.2416 31.9995 10.2416C31.9437 10.2416 32.5013 11.2008 32.8358 11.8215Z" fill="#00BBE7"/>
<path d="M38.0204 13.4579C36.3479 12.8372 34.0621 13.1758 33.5603 13.2886L34.6753 15.6019C34.6753 15.6019 36.6266 15.4891 37.6859 15.9969C38.7452 16.4483 39.5257 19.213 36.7381 21.4699L36.8496 21.9213C36.8496 21.9213 40.0274 20.6235 40.3062 17.351C40.5292 15.5455 39.6929 14.0221 38.0204 13.4579Z" fill="#0099D8"/>
<path d="M25.5325 24.4601C23.86 22.6546 21.6857 20.4541 21.6857 20.4541C21.6857 20.4541 20.0132 21.5261 18.4521 22.8803C18.4521 22.8803 23.5813 28.2404 27.0378 37.0988H27.3723C26.7591 31.8515 25.5325 24.4601 25.5325 24.4601Z" fill="#FCAF17"/>
<path d="M16.891 1.27023C14.2149 0.536741 14.6609 3.86567 14.6609 3.75283L14.9397 3.92209C15.1069 3.41429 15.4414 2.45511 16.7237 3.07576C17.783 3.58356 20.013 5.72761 21.9643 9.95931C25.1979 16.7864 26.6474 21.6952 28.989 42.8536C28.989 42.8536 30.2713 42.7972 31.6093 42.4587C33.0588 42.1202 34.0624 41.6124 34.0624 41.6124C32.2783 27.7888 28.8775 15.4887 24.0829 8.26663C21.8528 4.88128 19.0095 1.83446 16.891 1.27023Z" fill="#F15A22"/>
<path d="M39.7488 38.3401C37.4073 24.2345 34.118 14.5298 28.2641 6.79991C25.9783 3.80951 23.0235 1.72188 21.0164 1.10123C19.8457 0.762695 18.6191 0.762695 18.6191 0.762695C20.9049 1.43977 23.4695 3.69667 26.3686 7.98478C29.7136 13.0628 34.1737 22.6546 36.7383 40.3713C36.7383 40.3713 37.7418 39.8071 38.4108 39.3557C39.0798 38.8479 39.7488 38.3401 39.7488 38.3401Z" fill="#F15A22"/>
<path d="M7.46894 25.4757C11.3715 18.4793 17.7829 15.4325 22.4103 13.9091C22.1873 13.2884 21.8527 12.5549 21.6297 11.9907C18.1174 13.0628 11.7618 15.3197 7.02293 21.1876C2.17257 27.2248 2.61858 33.657 3.00884 36.0832C3.34335 38.0579 4.56988 39.6378 4.56988 39.6378C4.51412 37.3244 3.78936 32.0207 7.46894 25.4757Z" fill="#00BBE7"/>
<path d="M17.8386 25.3632C17.0581 31.5132 14.0475 36.8734 9.19716 38.7917C10.0892 33.5444 12.7095 23.1062 23.804 18.0282C23.581 17.2383 23.1907 16.1663 23.0235 15.6021C11.3157 19.6081 6.79986 29.1435 6.2981 41.3307L8.52814 43.4748C16.2776 40.428 19.3996 35.0114 18.2289 25.081L17.8386 25.3632Z" fill="#0099D8"/>
</g>
</g>
<defs>
<clipPath id="clip0_30064_82886">
<rect width="122" height="45" fill="white" transform="translate(0.5)"/>
</clipPath>
<clipPath id="clip1_30064_82886">
<rect width="116.464" height="42.7119" fill="white" transform="translate(0.5 0.762695)"/>
</clipPath>
</defs>
</svg>
