<svg width="17" height="18" viewBox="0 0 17 18" fill="none" xmlns="http://www.w3.org/2000/svg">
<path d="M0.0131035 10.6927C-0.0718307 11.1382 0.267906 11.6727 0.692577 11.6727L5.53384 12.3854L7.74214 17.0181C7.82708 17.1962 7.91201 17.2853 8.08188 17.3744C8.50655 17.6417 9.01616 17.4635 9.27096 17.0181L11.3943 12.3854L16.2356 11.6727C16.4904 11.6727 16.6603 11.5836 16.7452 11.4054C17.0849 11.0491 17.0849 10.5145 16.7452 10.1582L13.2629 6.59458L14.1122 1.51647C14.1122 1.33829 14.1122 1.16011 14.0273 0.981934C13.7725 0.536486 13.2629 0.358305 12.8382 0.625574L8.50655 3.03099L4.17489 0.625574C4.08996 0.536486 3.92009 0.536486 3.75022 0.536486C3.66529 0.536486 3.66529 0.536486 3.58035 0.536486C3.15568 0.625574 2.81594 1.07102 2.90088 1.60556L3.75022 6.68367L0.267906 10.2473C0.0980377 10.3363 0.0131035 10.5145 0.0131035 10.6927Z" fill="#F15A22"/>
</svg>
